<svg width="20" height="20" viewBox="0 0 20 20" fill="none" xmlns="http://www.w3.org/2000/svg">
<g clip-path="url(#clip0_28_1608)">
<path d="M9.15333 11.53C9.04304 11.53 8.93725 11.4862 8.85917 11.4083L8.23833 10.7892C8.19849 10.7508 8.16668 10.7049 8.14478 10.654C8.12287 10.6032 8.1113 10.5486 8.11074 10.4933C8.11019 10.4379 8.12065 10.3831 8.14153 10.3318C8.16241 10.2806 8.19328 10.234 8.23235 10.1949C8.27141 10.1557 8.31789 10.1247 8.36906 10.1037C8.42024 10.0826 8.47509 10.072 8.53041 10.0724C8.58573 10.0728 8.64042 10.0842 8.69129 10.106C8.74215 10.1278 8.78817 10.1594 8.82667 10.1992L9.15333 10.525L10.1375 9.54167C10.2156 9.46343 10.3216 9.41943 10.4322 9.41935C10.5428 9.41927 10.6488 9.46312 10.7271 9.54125C10.8053 9.61938 10.8493 9.72539 10.8494 9.83595C10.8495 9.94652 10.8056 10.0526 10.7275 10.1308L9.44833 11.4083C9.36984 11.4861 9.26384 11.5298 9.15333 11.53ZM16.9475 11.4075L18.2258 10.1308C18.3017 10.0522 18.3437 9.947 18.3428 9.83775C18.3418 9.7285 18.298 9.624 18.2208 9.54674C18.1435 9.46949 18.039 9.42567 17.9298 9.42472C17.8205 9.42377 17.7153 9.46577 17.6367 9.54167L16.6525 10.525L16.3258 10.1992C16.2873 10.1594 16.2413 10.1278 16.1905 10.106C16.1396 10.0842 16.0849 10.0728 16.0296 10.0724C15.9743 10.072 15.9194 10.0826 15.8682 10.1037C15.8171 10.1247 15.7706 10.1557 15.7315 10.1949C15.6924 10.234 15.6616 10.2806 15.6407 10.3318C15.6198 10.3831 15.6094 10.4379 15.6099 10.4933C15.6105 10.5486 15.622 10.6032 15.6439 10.654C15.6658 10.7049 15.6977 10.7508 15.7375 10.7892L16.3592 11.4083C16.3977 11.4471 16.4436 11.4779 16.4941 11.4989C16.5446 11.5199 16.5988 11.5306 16.6535 11.5305C16.7082 11.5305 16.7624 11.5195 16.8128 11.4984C16.8633 11.4773 16.909 11.4464 16.9475 11.4075ZM3.7725 6.21L5.90333 4.88917C6.02364 4.81473 6.12301 4.71088 6.19209 4.58742C6.26117 4.46396 6.29768 4.32494 6.29818 4.18347C6.29868 4.042 6.26315 3.90273 6.19495 3.77878C6.12674 3.65483 6.02811 3.55029 5.90833 3.475L3.7775 2.13333C3.65143 2.05392 3.50638 2.00976 3.35744 2.00545C3.20851 2.00113 3.06114 2.03683 2.93069 2.10882C2.80024 2.18081 2.69148 2.28646 2.61573 2.41477C2.53998 2.54307 2.50002 2.68934 2.5 2.83833V5.50167C2.50025 5.65008 2.54008 5.79573 2.6154 5.92361C2.69071 6.05149 2.79878 6.15696 2.92845 6.22914C3.05812 6.30132 3.2047 6.3376 3.35308 6.33424C3.50145 6.33087 3.64623 6.28799 3.7725 6.21ZM5.46417 4.18L3.33333 5.50167V2.83833L5.46417 4.18ZM20 10.4167C20 12.025 18.6917 13.3333 17.0833 13.3333C16.3827 13.332 15.7059 13.0787 15.1766 12.6197C14.6472 12.1608 14.3006 11.5267 14.2 10.8333H12.4667C12.3661 11.5267 12.0194 12.1608 11.4901 12.6197C10.9607 13.0787 10.284 13.332 9.58333 13.3333C8.88266 13.3322 8.2058 13.0789 7.6764 12.6199C7.14701 12.1609 6.80044 11.5268 6.7 10.8333H6.235C5.425 10.8333 4.69333 10.5008 4.16667 9.965V14.1667C4.16667 15.545 5.28833 16.6667 6.66667 16.6667H6.7C6.90333 15.2558 8.11667 14.1667 9.58333 14.1667C11.1917 14.1667 12.5 15.475 12.5 17.0833C12.5 18.6917 11.1917 20 9.58333 20C8.88266 19.9988 8.2058 19.7456 7.6764 19.2866C7.14701 18.8276 6.80044 18.1934 6.7 17.5H6.66667C4.82833 17.5 3.33333 16.005 3.33333 14.1667V8.24917C2.39291 8.05593 1.54787 7.54435 0.940674 6.80068C0.333474 6.05702 0.00124763 5.12674 0 4.16667C0 1.86917 1.86917 0 4.16667 0C6.46417 0 8.33333 1.86917 8.33333 4.16667C8.33186 5.26422 7.89782 6.31696 7.12533 7.09663C6.35284 7.87629 5.30416 8.32005 4.20667 8.33167C4.2993 8.8016 4.55215 9.22481 4.92206 9.52907C5.29198 9.83333 5.75603 9.99978 6.235 10H6.7C6.90333 8.58917 8.11667 7.5 9.58333 7.5C10.284 7.50117 10.9609 7.75439 11.4903 8.2134C12.0197 8.67241 12.3662 9.30656 12.4667 10H14.2C14.3006 9.30663 14.6472 8.67258 15.1766 8.2136C15.7059 7.75462 16.3827 7.50134 17.0833 7.5C18.6917 7.5 20 8.80833 20 10.4167ZM7.5 17.0833C7.5 18.2317 8.435 19.1667 9.58333 19.1667C10.7317 19.1667 11.6667 18.2317 11.6667 17.0833C11.6667 15.935 10.7317 15 9.58333 15C8.435 15 7.5 15.935 7.5 17.0833ZM4.16667 7.5C6.005 7.5 7.5 6.005 7.5 4.16667C7.5 2.32833 6.005 0.833333 4.16667 0.833333C2.32833 0.833333 0.833333 2.32833 0.833333 4.16667C0.833333 6.005 2.32833 7.5 4.16667 7.5ZM11.6667 10.4167C11.6667 9.26833 10.7317 8.33333 9.58333 8.33333C8.435 8.33333 7.5 9.26833 7.5 10.4167C7.5 11.565 8.435 12.5 9.58333 12.5C10.7317 12.5 11.6667 11.565 11.6667 10.4167ZM19.1667 10.4167C19.1667 9.26833 18.2317 8.33333 17.0833 8.33333C15.935 8.33333 15 9.26833 15 10.4167C15 11.565 15.935 12.5 17.0833 12.5C18.2317 12.5 19.1667 11.565 19.1667 10.4167ZM8.33333 17.0833C8.33333 17.1938 8.37723 17.2998 8.45537 17.378C8.53351 17.4561 8.63949 17.5 8.75 17.5C8.86051 17.5 8.96649 17.4561 9.04463 17.378C9.12277 17.2998 9.16667 17.1938 9.16667 17.0833C9.16667 16.9728 9.12277 16.8668 9.04463 16.7887C8.96649 16.7106 8.86051 16.6667 8.75 16.6667C8.63949 16.6667 8.53351 16.7106 8.45537 16.7887C8.37723 16.8668 8.33333 16.9728 8.33333 17.0833ZM10 17.0833C10 17.1938 10.0439 17.2998 10.122 17.378C10.2002 17.4561 10.3062 17.5 10.4167 17.5C10.5272 17.5 10.6332 17.4561 10.7113 17.378C10.7894 17.2998 10.8333 17.1938 10.8333 17.0833C10.8333 16.9728 10.7894 16.8668 10.7113 16.7887C10.6332 16.7106 10.5272 16.6667 10.4167 16.6667C10.3062 16.6667 10.2002 16.7106 10.122 16.7887C10.0439 16.8668 10 16.9728 10 17.0833ZM20 17.0833C20 18.6917 18.6917 20 17.0833 20C16.3825 19.9986 15.7055 19.7451 15.1761 19.2858C14.6467 18.8265 14.3002 18.192 14.2 17.4983C14.1942 17.4992 14.1892 17.5025 14.1825 17.5025L13.7608 17.5167H13.7467C13.6392 17.5139 13.537 17.4697 13.4613 17.3933C13.3857 17.3169 13.3425 17.2143 13.3408 17.1068C13.3391 16.9993 13.3789 16.8953 13.4521 16.8166C13.5253 16.7378 13.626 16.6904 13.7333 16.6842L14.155 16.67C14.17 16.6683 14.1842 16.675 14.1983 16.6758C14.297 15.9805 14.643 15.3441 15.1729 14.8832C15.7028 14.4223 16.3811 14.1679 17.0833 14.1667C18.6917 14.1667 20 15.475 20 17.0833ZM19.1667 17.0833C19.1667 15.935 18.2317 15 17.0833 15C15.935 15 15 15.935 15 17.0833C15 18.2317 15.935 19.1667 17.0833 19.1667C18.2317 19.1667 19.1667 18.2317 19.1667 17.0833Z" fill="#AAAAAA"/>
</g>
<defs>
<clipPath id="clip0_28_1608">
<rect width="20" height="20" fill="white"/>
</clipPath>
</defs>
</svg>
