<svg width="16" height="16" viewBox="0 0 16 16" fill="none" xmlns="http://www.w3.org/2000/svg">
<g clip-path="url(#clip0_40_3995)">
<path d="M2.56152 0C2.43067 4.19117e-05 2.3027 0.0384487 2.19345 0.110468C2.0842 0.182487 1.99846 0.284958 1.94685 0.4052C1.84445 0.651 1.91765 0.823533 2.14272 1.14607L6.75505 6.7192L6.07352 7.4564C5.95315 7.58512 5.88636 7.75487 5.88673 7.9311C5.8871 8.10732 5.95461 8.27679 6.07552 8.405L6.89498 9.28067L3.26892 13.5769C3.08205 13.7763 2.96638 14.1256 3.07085 14.376C3.12285 14.5023 3.21153 14.6102 3.32543 14.6857C3.43933 14.7611 3.57323 14.8007 3.70985 14.7993C3.79832 14.7972 3.88525 14.7757 3.96459 14.7365C4.04393 14.6973 4.11377 14.6413 4.16925 14.5723L8.02458 10.4883L13.018 15.8251C13.0764 15.8859 13.1476 15.933 13.2264 15.963C13.3052 15.9929 13.3897 16.0049 13.4737 15.9982C13.6009 15.9961 13.7246 15.956 13.8288 15.8831C13.9331 15.8102 14.0132 15.7078 14.0589 15.589C14.164 15.3377 14.0475 15.0889 13.8548 14.8285L9.15365 9.26733L9.86245 8.514C9.97472 8.39582 10.0378 8.23934 10.0389 8.07634C10.04 7.91333 9.97905 7.75602 9.86838 7.63633L3.08905 0.309267C3.08905 0.309267 2.84018 0.00693333 2.57705 0.0006L2.56152 0ZM2.56152 0.181333H2.57258C2.71785 0.1848 2.89752 0.362333 2.94885 0.423933L2.95218 0.427933L2.95565 0.4316L9.73498 7.7586C9.81427 7.84462 9.85789 7.95757 9.85699 8.07455C9.8561 8.19153 9.81077 8.3038 9.73018 8.3886L9.01912 9.14393L8.02032 7.96233L2.28738 1.03567C2.06832 0.721 2.05272 0.623467 2.11458 0.475C2.15236 0.387845 2.2148 0.313637 2.2942 0.261508C2.37361 0.209379 2.46653 0.181337 2.56152 0.181333ZM12.1222 1.22807C12.0422 1.22357 11.9621 1.23555 11.887 1.26328C11.8118 1.29101 11.7431 1.3339 11.6853 1.38927L7.88778 5.49487L9.01738 6.71613L12.5566 2.3736C12.7734 2.0846 12.876 1.9334 12.7731 1.68747C12.719 1.55729 12.6292 1.44508 12.514 1.3638C12.3988 1.28252 12.263 1.23542 12.1222 1.22807ZM7.01838 9.41627L7.89745 10.3586L4.03985 14.4449C4.00116 14.4967 3.9514 14.5391 3.89419 14.5691C3.83699 14.5991 3.7738 14.6159 3.70925 14.6183C3.60861 14.6197 3.50989 14.5907 3.42594 14.5352C3.34198 14.4797 3.2767 14.4002 3.23858 14.307C3.16398 14.1282 3.26252 13.8494 3.40138 13.7015L3.40478 13.6978L3.40792 13.6941L7.01838 9.41627Z" fill="white"/>
</g>
<defs>
<clipPath id="clip0_40_3995">
<rect width="16" height="16" fill="white"/>
</clipPath>
</defs>
</svg>
