<svg width="20" height="20" viewBox="0 0 20 20" fill="none" xmlns="http://www.w3.org/2000/svg">
<g clip-path="url(#clip0_28_1621)">
<path d="M11.6525 9.23172H13.4183C13.4593 9.23172 13.4986 9.2155 13.5277 9.18662C13.5567 9.15773 13.5731 9.11852 13.5733 9.07755V7.50505C13.5733 7.46394 13.557 7.42452 13.5279 7.39545C13.4989 7.36638 13.4595 7.35005 13.4183 7.35005H11.6525C11.6116 7.35005 11.5724 7.3663 11.5435 7.39521C11.5146 7.42412 11.4983 7.46333 11.4983 7.50422V9.07755C11.4983 9.16255 11.5675 9.23172 11.6525 9.23172ZM9.19085 4.70672H10.9558C10.997 4.70672 11.0364 4.69039 11.0654 4.66132C11.0945 4.63225 11.1108 4.59283 11.1108 4.55172V2.97839C11.1106 2.93742 11.0942 2.89821 11.0652 2.86932C11.0361 2.84043 10.9968 2.82422 10.9558 2.82422H9.19085C9.14996 2.82422 9.11075 2.84046 9.08183 2.86937C9.05292 2.89829 9.03668 2.9375 9.03668 2.97839V4.55172C9.03668 4.63672 9.10501 4.70672 9.19085 4.70672ZM9.19085 6.96922H10.9558C10.9969 6.969 11.0362 6.9526 11.0652 6.92358C11.0942 6.89456 11.1106 6.85526 11.1108 6.81422V5.24172C11.1106 5.20075 11.0942 5.16154 11.0652 5.13266C11.0361 5.10377 10.9968 5.08755 10.9558 5.08755H9.19085C9.14996 5.08755 9.11075 5.10379 9.08183 5.13271C9.05292 5.16162 9.03668 5.20083 9.03668 5.24172V6.81422C9.03668 6.89922 9.10501 6.96839 9.19085 6.96922ZM6.74918 6.96922H8.51585C8.55667 6.96878 8.59566 6.95226 8.62437 6.92323C8.65308 6.89421 8.66918 6.85504 8.66918 6.81422V5.24172C8.66918 5.20083 8.65294 5.16162 8.62403 5.13271C8.59511 5.10379 8.5559 5.08755 8.51501 5.08755H6.75001C6.70913 5.08755 6.66991 5.10379 6.641 5.13271C6.61209 5.16162 6.59585 5.20083 6.59585 5.24172V6.81422C6.59585 6.89922 6.66501 6.96839 6.75001 6.96922M4.28001 6.96922H6.04585C6.08681 6.969 6.12602 6.95257 6.15491 6.92353C6.1838 6.89448 6.20001 6.85518 6.20001 6.81422V5.24172C6.20001 5.20083 6.18377 5.16162 6.15486 5.13271C6.12595 5.10379 6.08674 5.08755 6.04585 5.08755H4.28001C4.23905 5.08755 4.19975 5.10377 4.17071 5.13266C4.14166 5.16154 4.12523 5.20075 4.12501 5.24172V6.81422C4.12501 6.89922 4.19501 6.96839 4.28001 6.96922ZM9.19085 9.23172H10.9558C10.9968 9.23172 11.0361 9.2155 11.0652 9.18662C11.0942 9.15773 11.1106 9.11852 11.1108 9.07755V7.50505C11.1108 7.46394 11.0945 7.42452 11.0654 7.39545C11.0364 7.36638 10.997 7.35005 10.9558 7.35005H9.19085C9.14996 7.35005 9.11075 7.3663 9.08183 7.39521C9.05292 7.42412 9.03668 7.46333 9.03668 7.50422V9.07755C9.03668 9.16255 9.10501 9.23172 9.19085 9.23172ZM6.74918 9.23172H8.51585C8.55659 9.2315 8.59559 9.21516 8.62432 9.18627C8.65305 9.15738 8.66918 9.1183 8.66918 9.07755V7.50505C8.66929 7.48481 8.66541 7.46474 8.65777 7.44599C8.65012 7.42725 8.63885 7.41019 8.62462 7.39579C8.61038 7.3814 8.59344 7.36995 8.57478 7.36211C8.55612 7.35426 8.53609 7.35016 8.51585 7.35005H6.74918C6.70844 7.35027 6.66944 7.36661 6.64071 7.3955C6.61197 7.42439 6.59585 7.46348 6.59585 7.50422V9.07755C6.59585 9.16255 6.66501 9.23172 6.75001 9.23172M4.28001 9.23172H6.04585C6.08674 9.23172 6.12595 9.21548 6.15486 9.18656C6.18377 9.15765 6.20001 9.11844 6.20001 9.07755V7.50505C6.20012 7.48481 6.19624 7.46474 6.1886 7.44599C6.18095 7.42725 6.16969 7.41019 6.15545 7.39579C6.14121 7.3814 6.12428 7.36995 6.10561 7.36211C6.08695 7.35426 6.06693 7.35016 6.04668 7.35005H4.28001C4.23891 7.35005 4.19948 7.36638 4.17041 7.39545C4.14134 7.42452 4.12501 7.46394 4.12501 7.50505V9.07755C4.12501 9.16255 4.19501 9.23172 4.28001 9.23172ZM1.84668 9.23172H3.61335C3.65409 9.2315 3.69309 9.21516 3.72182 9.18627C3.75055 9.15738 3.76668 9.1183 3.76668 9.07755V7.50505C3.76679 7.48481 3.76291 7.46474 3.75526 7.44599C3.74762 7.42725 3.73635 7.41019 3.72212 7.39579C3.70788 7.3814 3.69094 7.36995 3.67228 7.36211C3.65362 7.35426 3.63359 7.35016 3.61335 7.35005H1.84668C1.80594 7.35027 1.76694 7.36661 1.73821 7.3955C1.70947 7.42439 1.69335 7.46348 1.69335 7.50422V9.07755C1.69335 9.16255 1.76085 9.23172 1.84668 9.23172ZM19.8025 8.24172C19.7483 8.19922 19.2425 7.81672 18.1742 7.81672C17.8925 7.81755 17.6108 7.84172 17.3325 7.88922C17.1258 6.47255 15.955 5.78089 15.9025 5.75089L15.6158 5.58505L15.4275 5.85755C15.1908 6.22255 15.0192 6.62589 14.9175 7.04922C14.7258 7.85755 14.8425 8.61755 15.2533 9.26672C14.7575 9.54339 13.9617 9.61089 13.8 9.61672H0.625848C0.460443 9.61694 0.301851 9.68263 0.184736 9.79943C0.0676212 9.91623 0.00150811 10.0746 0.000847521 10.2401C-0.0145844 11.3941 0.180843 12.5412 0.577514 13.6251C1.03168 14.8151 1.70668 15.6917 2.58585 16.2284C3.56918 16.8309 5.16918 17.1759 6.98168 17.1759C7.80085 17.1784 8.61751 17.1042 9.42335 16.9542C10.5424 16.7486 11.6192 16.3574 12.6092 15.7967C13.4258 15.3242 14.1592 14.7234 14.7842 14.0167C15.8275 12.8351 16.4492 11.5192 16.9117 10.3501H17.0958C18.2392 10.3501 18.9417 9.89255 19.3292 9.50922C19.5867 9.26505 19.7875 8.96755 19.9183 8.63755L20 8.39755L19.8025 8.24172Z" fill="#AAAAAA"/>
</g>
<defs>
<clipPath id="clip0_28_1621">
<rect width="20" height="20" fill="white"/>
</clipPath>
</defs>
</svg>
