<svg width="20" height="20" viewBox="0 0 20 20" fill="none" xmlns="http://www.w3.org/2000/svg">
<g clip-path="url(#clip0_28_1629)">
<path d="M10.0092 0C9.3009 0 8.72657 0.57425 8.72657 1.28267C8.72657 1.99108 9.30082 2.56542 10.0092 2.56542C10.5051 2.56542 10.9342 2.28375 11.1477 1.87208C12.9984 2.92833 14.3536 6.43275 14.3536 10.5073C14.3536 12.2336 14.1127 13.8873 13.6661 15.3144C13.6555 15.348 13.6517 15.3833 13.6549 15.4184C13.658 15.4534 13.668 15.4875 13.6843 15.5187C13.7006 15.5499 13.7229 15.5776 13.7499 15.6001C13.7769 15.6227 13.8081 15.6397 13.8417 15.6502C13.9095 15.6715 13.9831 15.6648 14.0461 15.6319C14.1091 15.5989 14.1565 15.5422 14.1777 15.4743C14.6409 13.9941 14.8896 12.2867 14.8896 10.5073C14.8896 6.18008 13.4132 2.43567 11.2891 1.33842C11.2899 1.31983 11.292 1.3015 11.292 1.28267C11.292 0.574333 10.7177 0 10.0092 0V0ZM10.0092 0.536C10.2073 0.536 10.3972 0.614666 10.5372 0.754694C10.6772 0.894721 10.7559 1.08464 10.7559 1.28267C10.7559 1.48069 10.6772 1.67061 10.5372 1.81064C10.3972 1.95067 10.2073 2.02933 10.0092 2.02933C9.81121 2.02933 9.62129 1.95067 9.48126 1.81064C9.34124 1.67061 9.26257 1.48069 9.26257 1.28267C9.26257 1.08464 9.34124 0.894721 9.48126 0.754694C9.62129 0.614666 9.81121 0.536 10.0092 0.536ZM5.43757 4.12367C3.71507 4.12983 2.39815 4.6775 1.78049 5.74742C1.1659 6.81192 1.34157 8.22325 2.20657 9.73183C2.24276 9.79185 2.30101 9.8353 2.36885 9.85289C2.43668 9.87049 2.50871 9.86081 2.56951 9.82595C2.6303 9.79109 2.67502 9.7338 2.6941 9.66637C2.71318 9.59893 2.70509 9.52671 2.67157 9.46517C1.89249 8.10617 1.74082 6.88833 2.24482 6.01542C2.92899 4.83042 4.77232 4.38608 7.18824 4.82617C7.22287 4.83248 7.2584 4.8319 7.29281 4.82448C7.32722 4.81705 7.35983 4.80293 7.38878 4.7829C7.41773 4.76287 7.44245 4.73734 7.46153 4.70776C7.48061 4.67818 7.49368 4.64513 7.49999 4.6105C7.50629 4.57587 7.50572 4.54034 7.4983 4.50593C7.49087 4.47152 7.47675 4.43891 7.45672 4.40996C7.43669 4.38101 7.41116 4.35629 7.38158 4.33721C7.352 4.31813 7.31895 4.30506 7.28432 4.29875C6.63099 4.17975 6.01174 4.12167 5.43765 4.12375L5.43757 4.12367ZM14.6477 4.13833C14.5767 4.1374 14.5081 4.16475 14.4572 4.21435C14.4063 4.26396 14.3772 4.33176 14.3762 4.40283C14.3753 4.47391 14.4027 4.54245 14.4523 4.59336C14.5019 4.64428 14.5697 4.67341 14.6407 4.67433C16.1688 4.69425 17.2704 5.17067 17.7659 6.029C18.4486 7.2115 17.9157 9.02458 16.3341 10.8932C16.2882 10.9475 16.2657 11.0178 16.2716 11.0886C16.2775 11.1595 16.3112 11.2251 16.3655 11.2711C16.3923 11.2938 16.4234 11.3111 16.4569 11.3218C16.4905 11.3325 16.5258 11.3365 16.5608 11.3336C16.5959 11.3307 16.6301 11.3209 16.6613 11.3048C16.6926 11.2887 16.7204 11.2665 16.7432 11.2397C18.4544 9.218 19.0522 7.18458 18.2302 5.761C17.6255 4.7135 16.3469 4.16042 14.6477 4.13833ZM12.3991 4.382C12.3809 4.38218 12.3629 4.38419 12.3452 4.388C10.7978 4.71958 9.15074 5.36758 7.56899 6.28083C3.76074 8.4795 1.24199 11.6932 1.43557 14.0906C1.04174 14.3096 0.774902 14.7292 0.774902 15.2118C0.774902 15.9202 1.34924 16.4945 2.05765 16.4945C2.76599 16.4945 3.34032 15.9202 3.34032 15.2118C3.34032 14.5034 2.76607 13.9291 2.05765 13.9291C2.02599 13.9291 1.99482 13.9316 1.96365 13.9338C1.88015 11.8007 4.24982 8.81617 7.83699 6.74508C9.3714 5.85925 10.9662 5.2315 12.4574 4.912C12.5221 4.89788 12.5793 4.86031 12.6179 4.80653C12.6566 4.75276 12.674 4.68658 12.6667 4.62075C12.6595 4.55492 12.6281 4.49411 12.5787 4.45003C12.5293 4.40594 12.4653 4.38171 12.3991 4.382ZM10.0002 9.579C9.93729 9.57977 9.87467 9.58688 9.81324 9.60025C9.31224 9.70867 8.99407 10.2023 9.10215 10.7034C9.21065 11.2044 9.70432 11.5227 10.2053 11.4145C10.7063 11.306 11.0247 10.8123 10.9164 10.3113C10.8215 9.873 10.4317 9.57433 10.0002 9.579ZM3.77665 11.1175C3.74146 11.1158 3.70628 11.1211 3.67313 11.133C3.63998 11.145 3.60951 11.1633 3.58349 11.1871C3.55745 11.2108 3.53633 11.2393 3.52135 11.2712C3.50636 11.303 3.49779 11.3375 3.49614 11.3726C3.49448 11.4078 3.49977 11.4429 3.5117 11.476C3.52362 11.5091 3.54196 11.5396 3.56565 11.5656C4.62249 12.7269 5.9954 13.8164 7.56115 14.7203C11.24 16.8444 15.1492 17.4577 17.1952 16.253C17.4126 16.4101 17.6741 16.4947 17.9423 16.4946C18.6507 16.4946 19.225 15.9203 19.225 15.2119C19.225 14.5035 18.6508 13.9292 17.9423 13.9292C17.234 13.9292 16.6597 14.5035 16.6597 15.2119C16.6597 15.4419 16.7211 15.6572 16.8272 15.8439C14.9565 16.8556 11.3013 16.2607 7.82915 14.2561C6.31015 13.3791 4.98082 12.3243 3.96215 11.2049C3.93851 11.1788 3.90996 11.1577 3.87812 11.1427C3.84629 11.1277 3.81181 11.1191 3.77665 11.1175ZM2.05765 14.4652C2.15571 14.4652 2.2528 14.4845 2.34339 14.522C2.43398 14.5595 2.51629 14.6145 2.58563 14.6839C2.65496 14.7532 2.70996 14.8355 2.74748 14.9261C2.78501 15.0167 2.80432 15.1138 2.80432 15.2118C2.80432 15.3099 2.78501 15.407 2.74748 15.4976C2.70996 15.5882 2.65496 15.6705 2.58563 15.7398C2.51629 15.8091 2.43398 15.8641 2.34339 15.9017C2.2528 15.9392 2.15571 15.9585 2.05765 15.9585C1.9596 15.9585 1.86251 15.9392 1.77192 15.9017C1.68133 15.8641 1.59901 15.8091 1.52968 15.7398C1.46034 15.6705 1.40535 15.5882 1.36782 15.4976C1.3303 15.407 1.31099 15.3099 1.31099 15.2118C1.31099 15.1138 1.3303 15.0167 1.36782 14.9261C1.40535 14.8355 1.46034 14.7532 1.52968 14.6839C1.59901 14.6145 1.68133 14.5595 1.77192 14.522C1.86251 14.4845 1.9596 14.4652 2.05765 14.4652ZM17.9423 14.4652C18.0404 14.4652 18.1375 14.4845 18.2281 14.522C18.3186 14.5595 18.401 14.6145 18.4703 14.6839C18.5396 14.7532 18.5946 14.8355 18.6322 14.9261C18.6697 15.0167 18.689 15.1138 18.689 15.2118C18.689 15.3099 18.6697 15.407 18.6322 15.4976C18.5946 15.5882 18.5396 15.6705 18.4703 15.7398C18.401 15.8091 18.3186 15.8641 18.2281 15.9017C18.1375 15.9392 18.0404 15.9585 17.9423 15.9585C17.7627 15.9587 17.5891 15.8937 17.4537 15.7757C17.4516 15.7723 17.4504 15.7688 17.4482 15.7654C17.4272 15.7347 17.4 15.7088 17.3684 15.6892C17.2777 15.5802 17.22 15.4476 17.2019 15.3069C17.1839 15.1662 17.2062 15.0233 17.2664 14.8949C17.3267 14.7664 17.4222 14.6578 17.5419 14.5817C17.6616 14.5056 17.8005 14.4652 17.9423 14.4652ZM6.2719 15.6052C6.22773 15.6027 6.18362 15.6112 6.14353 15.6299C6.10343 15.6486 6.06859 15.6769 6.04213 15.7124C6.01566 15.7478 5.99838 15.7893 5.99184 15.8331C5.9853 15.8768 5.98971 15.9215 6.00465 15.9632C6.8994 18.4617 8.36332 20 10.0092 20C11.2097 20 12.3205 19.1815 13.1866 17.7408C13.2047 17.7107 13.2167 17.6772 13.2219 17.6424C13.2271 17.6076 13.2254 17.5721 13.2169 17.538C13.2084 17.5038 13.1933 17.4717 13.1723 17.4434C13.1514 17.4151 13.1251 17.3912 13.0949 17.3731C13.0339 17.3365 12.961 17.3256 12.892 17.3428C12.823 17.36 12.7636 17.4038 12.727 17.4648C11.9487 18.7595 10.9927 19.4639 10.0092 19.4639C8.64199 19.4639 7.33632 18.0918 6.50924 15.7823C6.49147 15.7327 6.45948 15.6895 6.41727 15.658C6.37505 15.6265 6.32449 15.6081 6.2719 15.6052Z" fill="#AAAAAA"/>
</g>
<defs>
<clipPath id="clip0_28_1629">
<rect width="20" height="20" fill="white"/>
</clipPath>
</defs>
</svg>
