<svg width="20" height="20" viewBox="0 0 20 20" fill="none" xmlns="http://www.w3.org/2000/svg">
<g clip-path="url(#clip0_28_1646)">
<path d="M13.21 7.48417H9.38665V0H13.21C15.2733 0 16.9517 1.67833 16.9517 3.74167C16.9517 5.805 15.2733 7.48417 13.21 7.48417ZM10.6125 6.25833H13.21C14.5975 6.25833 15.7258 5.12917 15.7258 3.7425C15.7258 2.35583 14.5967 1.22667 13.21 1.22667H10.6125V6.25833ZM10.6125 7.48417H6.78998C4.72665 7.48417 3.04832 5.80583 3.04832 3.7425C3.04832 1.67917 4.72665 0 6.78998 0H10.6133V7.48417H10.6125ZM6.78998 1.22583C5.40248 1.22583 4.27415 2.355 4.27415 3.74167C4.27415 5.12833 5.40248 6.25833 6.78998 6.25833H9.38749V1.22583H6.78998ZM10.6125 13.7417H6.78998C4.72665 13.7417 3.04832 12.0633 3.04832 10C3.04832 7.93667 4.72665 6.25833 6.78998 6.25833H10.6133V13.7417H10.6125ZM6.78998 7.48417C5.40248 7.48417 4.27415 8.61333 4.27415 10C4.27415 11.3867 5.40332 12.5158 6.78998 12.5158H9.38749V7.48417H6.78998ZM6.80998 20C4.73582 20 3.04749 18.3217 3.04749 16.2583C3.04749 14.195 4.72582 12.5167 6.78915 12.5167H10.6125V16.2175C10.6125 18.3033 8.90665 20 6.80998 20ZM6.78998 13.7417C6.12302 13.7425 5.48362 14.0079 5.012 14.4795C4.54038 14.9511 4.27503 15.5905 4.27415 16.2575C4.27415 17.645 5.41165 18.7733 6.81082 18.7733C8.23165 18.7733 9.38832 17.6267 9.38832 16.2167V13.7417H6.78998ZM13.21 13.7417H13.1283C11.065 13.7417 9.38665 12.0633 9.38665 10C9.38665 7.93667 11.065 6.25833 13.1283 6.25833H13.21C15.2733 6.25833 16.9517 7.93667 16.9517 10C16.9517 12.0633 15.2733 13.7417 13.21 13.7417ZM13.1292 7.48417C11.7417 7.48417 10.6133 8.61333 10.6133 10C10.6133 11.3867 11.7425 12.5158 13.1292 12.5158H13.2108C14.5983 12.5158 15.7267 11.3867 15.7267 10C15.7267 8.61333 14.5975 7.48417 13.2108 7.48417H13.1292Z" fill="#AAAAAA"/>
</g>
<defs>
<clipPath id="clip0_28_1646">
<rect width="20" height="20" fill="white"/>
</clipPath>
</defs>
</svg>
