<svg width="20" height="20" viewBox="0 0 20 20" fill="none" xmlns="http://www.w3.org/2000/svg">
<g clip-path="url(#clip0_28_1600)">
<path d="M10.0209 0.94165C5.21254 0.94165 1.31338 4.81415 1.31338 9.58998C1.31338 10.5167 1.46171 11.4075 1.73255 12.2442C1.78588 12.0592 1.90171 11.8742 2.07921 11.7633C2.20963 11.6803 2.3613 11.6369 2.51588 11.6383C2.76005 11.6383 3.00255 11.7417 3.21588 11.875C3.44755 12.0192 3.61588 12.215 3.80754 12.4533C3.99588 12.6883 4.18921 12.9625 4.37754 13.2458V13.2342C4.39171 12.9642 4.46588 12.7158 4.59755 12.5058C4.72921 12.2958 4.93338 12.1 5.23254 12.0533C5.48254 12.0142 5.72921 12.1033 5.88838 12.2225C6.04755 12.3417 6.14671 12.4833 6.22171 12.6117C6.34671 12.8258 6.39838 13.0017 6.41588 13.0633C6.42421 13.085 6.96005 14.3567 7.79671 15.18C8.31005 15.6842 8.63838 16.1992 8.69838 16.7733C8.74421 17.2208 8.61838 17.6558 8.38171 18.0833C8.91255 18.1842 9.46004 18.2392 10.0209 18.2392C10.5684 18.2392 11.1025 18.1867 11.6217 18.0908C11.3825 17.66 11.255 17.2233 11.3017 16.7733C11.36 16.1983 11.6892 15.6842 12.2025 15.1792C13.0392 14.3567 13.575 13.085 13.5834 13.0633C13.6009 13.0017 13.6525 12.8258 13.7775 12.6117C13.8525 12.4833 13.9509 12.3425 14.1109 12.2225C14.2991 12.0828 14.5344 12.0222 14.7667 12.0533C15.0659 12.1 15.27 12.295 15.4017 12.5058C15.5334 12.7167 15.6075 12.9642 15.6225 13.2342V13.2467C15.81 12.9633 16.0034 12.6883 16.1917 12.4533C16.3834 12.215 16.5517 12.02 16.7834 11.875C16.9975 11.7417 17.2392 11.6383 17.4834 11.6375C17.638 11.6368 17.7895 11.6805 17.92 11.7633C18.11 11.8825 18.2309 12.0867 18.2784 12.2842L18.2834 12.3175C18.5781 11.4383 18.7283 10.5172 18.7284 9.58998C18.7284 4.81415 14.83 0.94165 10.0209 0.94165ZM6.93921 5.48582C7.14622 5.4842 7.35039 5.53403 7.53338 5.63082C7.67742 5.70706 7.80502 5.81096 7.90885 5.93659C8.01268 6.06221 8.09071 6.20708 8.13847 6.3629C8.18623 6.51872 8.20278 6.68244 8.18718 6.84467C8.17158 7.0069 8.12413 7.16445 8.04755 7.30832C7.89504 7.59415 7.41255 7.12998 7.12921 7.22998C6.81255 7.34165 6.68588 7.99165 6.36505 7.82165C6.12009 7.69278 5.92532 7.48561 5.81181 7.23317C5.6983 6.98073 5.67257 6.69755 5.73873 6.42879C5.80489 6.16002 5.95913 5.92114 6.17686 5.75024C6.39458 5.57934 6.66326 5.48625 6.94005 5.48582M13.1784 5.48582C13.4551 5.48643 13.7236 5.57966 13.9412 5.75062C14.1588 5.92159 14.3129 6.16047 14.379 6.42919C14.445 6.69791 14.4192 6.981 14.3057 7.23336C14.1922 7.48572 13.9974 7.69282 13.7525 7.82165C13.4317 7.99165 13.3059 7.34165 12.9892 7.22998C12.7059 7.12998 12.2225 7.59415 12.07 7.30832C11.9935 7.16445 11.946 7.0069 11.9304 6.84467C11.9148 6.68244 11.9314 6.51872 11.9791 6.3629C12.0269 6.20708 12.1049 6.06221 12.2087 5.93659C12.3126 5.81096 12.4402 5.70706 12.5842 5.63082C12.7672 5.53403 12.9714 5.4842 13.1784 5.48582ZM4.27838 6.77748C4.49066 6.77748 4.69425 6.86181 4.84436 7.01192C4.99447 7.16203 5.0788 7.36562 5.0788 7.5779C5.0788 7.79018 4.99447 7.99377 4.84436 8.14388C4.69425 8.29399 4.49066 8.37832 4.27838 8.37832C4.06621 8.37832 3.86272 8.29403 3.71269 8.144C3.56266 7.99397 3.47838 7.79049 3.47838 7.57832C3.47838 7.36614 3.56266 7.16266 3.71269 7.01263C3.86272 6.8626 4.06621 6.77748 4.27838 6.77748ZM15.81 6.77832C16.0222 6.77832 16.2257 6.8626 16.3757 7.01263C16.5258 7.16266 16.61 7.36614 16.61 7.57832C16.61 7.79049 16.5258 7.99397 16.3757 8.144C16.2257 8.29403 16.0222 8.37832 15.81 8.37832C15.5979 8.37832 15.3944 8.29403 15.2444 8.144C15.0943 7.99397 15.01 7.79049 15.01 7.57832C15.01 7.36614 15.0943 7.16266 15.2444 7.01263C15.3944 6.8626 15.5979 6.77832 15.81 6.77832ZM7.07421 9.54832C7.56421 9.55665 8.71171 10.5125 10.0509 10.5183C11.39 10.5125 12.5375 9.55582 13.0275 9.54832C13.1909 9.54582 13.2817 9.64832 13.2817 9.92665C13.2817 10.665 12.9284 11.8667 11.9792 12.595C11.7959 11.965 10.8159 11.4567 10.6209 11.495C10.6148 11.4955 10.6092 11.4972 10.6042 11.5L10.5675 11.5217L10.5592 11.5283L10.5342 11.5483C10.5242 11.5578 10.5145 11.5678 10.505 11.5783L10.4784 11.6117C10.4609 11.6358 10.4448 11.6608 10.43 11.6867L10.4184 11.7075C10.3912 11.7564 10.3606 11.8092 10.3267 11.8658C10.306 11.8996 10.2829 11.9319 10.2575 11.9625C10.2148 12.0174 10.1665 12.0676 10.1134 12.1125C10.0939 12.1286 10.0731 12.1447 10.0509 12.1608C9.97236 12.103 9.90201 12.0349 9.84171 11.9583C9.81867 11.93 9.79751 11.9002 9.77838 11.8692C9.67505 11.7083 9.63088 11.5667 9.49755 11.4992C9.46921 11.4858 9.41088 11.4925 9.33088 11.5175C9.27866 11.5342 9.21866 11.5583 9.15088 11.59C9.11755 11.6055 9.08282 11.623 9.04671 11.6425L8.93838 11.7042C8.90116 11.7264 8.86338 11.7503 8.82505 11.7758C8.78682 11.8014 8.7493 11.8281 8.71255 11.8558C8.63693 11.9125 8.56459 11.9734 8.49588 12.0383C8.46113 12.0705 8.42776 12.1041 8.39588 12.1392C8.36497 12.1735 8.3355 12.2091 8.30755 12.2458L8.30588 12.2475C8.27942 12.2831 8.2544 12.3198 8.23088 12.3575L8.23005 12.3583C8.19513 12.4142 8.16582 12.4734 8.14255 12.535C8.13532 12.555 8.12866 12.5753 8.12255 12.5958C7.17338 11.8667 6.82005 10.665 6.82005 9.92665C6.82005 9.64832 6.91088 9.54582 7.07421 9.54832ZM7.77088 18.1767C8.45755 17.185 8.40921 16.4417 7.46671 15.515C6.52505 14.5883 5.97588 13.2333 5.97588 13.2333C5.97588 13.2333 5.77088 12.4458 5.30421 12.5183C4.83754 12.5908 4.49588 13.7675 5.47255 14.4867C6.45005 15.2067 5.27838 15.695 4.90171 15.02C4.52671 14.3433 3.49921 12.6067 2.96671 12.2742C2.43421 11.9417 2.05921 12.1283 2.18505 12.8133C2.31088 13.4983 4.53671 15.1575 4.32004 15.5167C4.10338 15.8758 3.34004 15.095 3.34004 15.095C3.34004 15.095 0.951712 12.9558 0.431712 13.5133C-0.0882885 14.0708 0.825878 14.5383 2.12921 15.3133C3.43255 16.09 3.53421 16.295 3.34921 16.5883C3.16421 16.8817 0.286712 14.4958 0.0158782 15.5075C-0.253288 16.5192 2.95255 16.8133 2.75505 17.5117C2.55671 18.2108 0.496712 16.1892 0.0750449 16.9767C-0.346622 17.765 2.98338 18.69 3.01005 18.6967C4.08505 18.9717 6.81671 19.5533 7.77088 18.1767ZM12.2284 18.1767C11.5417 17.185 11.59 16.4417 12.5325 15.515C13.4742 14.5883 14.0234 13.2333 14.0234 13.2333C14.0234 13.2333 14.2284 12.4458 14.695 12.5183C15.1617 12.5908 15.5034 13.7675 14.5267 14.4867C13.5492 15.2067 14.7209 15.695 15.0975 15.02C15.4734 14.3433 16.5 12.6067 17.0325 12.2742C17.565 11.9417 17.94 12.1283 17.8142 12.8133C17.6884 13.4983 15.4625 15.1575 15.6792 15.5167C15.8959 15.8758 16.6592 15.095 16.6592 15.095C16.6592 15.095 19.0475 12.9558 19.5675 13.5133C20.0875 14.0708 19.1734 14.5383 17.87 15.3133C16.5667 16.09 16.465 16.295 16.65 16.5883C16.835 16.8817 19.7125 14.4958 19.9834 15.5075C20.2525 16.5192 17.0467 16.8133 17.2442 17.5117C17.4425 18.2108 19.5025 16.1892 19.9242 16.9767C20.3459 17.765 17.0159 18.69 16.9892 18.6967C15.9142 18.9717 13.1825 19.5533 12.2284 18.1767Z" fill="#AAAAAA"/>
</g>
<defs>
<clipPath id="clip0_28_1600">
<rect width="20" height="20" fill="white"/>
</clipPath>
</defs>
</svg>
