<svg width="20" height="20" viewBox="0 0 20 20" fill="none" xmlns="http://www.w3.org/2000/svg">
<g clip-path="url(#clip0_28_1613)">
<path d="M7.37586 15.4667C7.37586 15.4667 6.6117 15.9117 7.92003 16.0617C9.50503 16.2433 10.315 16.2175 12.0609 15.8858C12.0609 15.8858 12.5209 16.1742 13.1617 16.4242C9.24587 18.1017 4.30086 16.3258 7.37586 15.4667ZM6.8967 13.2775C6.8967 13.2775 6.04003 13.9117 7.34836 14.0475C9.0417 14.2217 10.3784 14.2367 12.6925 13.7908C12.6925 13.7908 13.0125 14.115 13.515 14.2925C8.78253 15.6767 3.5092 14.4008 6.8967 13.2775ZM10.93 9.5625C11.895 10.6733 10.6767 11.6733 10.6767 11.6733C10.6767 11.6733 13.1259 10.4083 12.0009 8.825C10.95 7.34833 10.1442 6.615 14.5067 4.085C14.5067 4.08417 7.66003 5.79417 10.93 9.5625ZM16.1084 17.0867C16.1084 17.0867 16.6742 17.5525 15.4859 17.9125C13.2259 18.5975 6.0792 18.8033 4.09503 17.94C3.3817 17.6292 4.72003 17.1983 5.14003 17.1083C5.5792 17.0133 5.83003 17.0308 5.83003 17.0308C5.03586 16.4717 0.700032 18.1283 3.62753 18.6033C11.6109 19.8975 18.1792 18.02 16.1084 17.0867ZM7.74336 11.0083C7.74336 11.0083 4.10836 11.8717 6.4567 12.185C7.44753 12.3175 9.4242 12.2875 11.265 12.1333C12.77 12.0067 14.28 11.7358 14.28 11.7358C14.28 11.7358 13.7492 11.9625 13.365 12.225C9.6742 13.1958 2.54336 12.7442 4.5967 11.7517C6.3317 10.9133 7.74336 11.0083 7.74336 11.0083ZM14.2634 14.6533C18.0159 12.7033 16.2809 10.8292 15.07 11.0825C14.7742 11.1442 14.6409 11.1975 14.6409 11.1975C14.6409 11.1975 14.7509 11.025 14.9617 10.95C17.3575 10.1075 19.2 13.4342 14.1884 14.7517C14.1884 14.7508 14.2467 14.7 14.2634 14.6533ZM12.0009 0C12.0009 0 14.0792 2.07833 10.03 5.275C6.78337 7.83917 9.29003 9.30167 10.0292 10.9717C8.1342 9.26083 6.74337 7.75667 7.67587 6.35583C9.04587 4.29833 12.84 3.30167 12.0009 0V0ZM8.1117 19.9367C11.7134 20.1675 17.2442 19.8092 17.375 18.105C17.375 18.105 17.1234 18.7508 14.3984 19.2642C11.325 19.8425 7.53253 19.775 5.2842 19.4042C5.2842 19.4033 5.74503 19.785 8.1117 19.9367Z" fill="#AAAAAA"/>
</g>
<defs>
<clipPath id="clip0_28_1613">
<rect width="20" height="20" fill="white"/>
</clipPath>
</defs>
</svg>
