<svg width="20" height="20" viewBox="0 0 20 20" fill="none" xmlns="http://www.w3.org/2000/svg">
<g clip-path="url(#clip0_28_1596)">
<path d="M1.81833 0C0.833333 0 0.0308333 0.783333 0.00166667 1.76167L0 1.81833V7.2725C0 7.75475 0.191574 8.21725 0.532577 8.55826C0.873581 8.89926 1.33608 9.09083 1.81833 9.09083C2.30059 9.09083 2.76309 8.89926 3.10409 8.55826C3.44509 8.21725 3.63667 7.75475 3.63667 7.2725V1.81833C3.63667 1.33608 3.44509 0.873581 3.10409 0.532577C2.76309 0.191574 2.30059 0 1.81833 0ZM7.2725 0C6.2875 0 5.485 0.783333 5.45583 1.76167L5.45417 1.81833V12.7267C5.45417 13.2089 5.64574 13.6714 5.98674 14.0124C6.32775 14.3534 6.79025 14.545 7.2725 14.545C7.75475 14.545 8.21725 14.3534 8.55826 14.0124C8.89926 13.6714 9.09083 13.2089 9.09083 12.7267V1.81917C9.09094 1.58031 9.04399 1.34377 8.95266 1.12306C8.86133 0.902358 8.72741 0.701808 8.55855 0.532872C8.38969 0.363936 8.1892 0.229924 7.96854 0.138492C7.74787 0.0470602 7.51136 -2.50841e-08 7.2725 0ZM12.7275 0C12.2452 0 11.7827 0.191574 11.4417 0.532577C11.1007 0.873581 10.9092 1.33608 10.9092 1.81833C10.9092 2.30059 11.1007 2.76309 11.4417 3.10409C11.7827 3.44509 12.2452 3.63667 12.7275 3.63667C13.2098 3.63667 13.6723 3.44509 14.0133 3.10409C14.3543 2.76309 14.5458 2.30059 14.5458 1.81833C14.5458 1.33608 14.3543 0.873581 14.0133 0.532577C13.6723 0.191574 13.2098 0 12.7275 0ZM18.1817 0C17.1967 0 16.3942 0.783333 16.365 1.76167L16.3633 1.81833V18.1817C16.3633 18.6639 16.5549 19.1264 16.8959 19.4674C17.2369 19.8084 17.6994 20 18.1817 20C18.6639 20 19.1264 19.8084 19.4674 19.4674C19.8084 19.1264 20 18.6639 20 18.1817V1.81833C20 1.33608 19.8084 0.873581 19.4674 0.532577C19.1264 0.191574 18.6639 0 18.1817 0ZM12.7275 5.45417C11.7417 5.45417 10.94 6.2375 10.91 7.21583L10.9092 7.2725V18.1817C10.9092 18.6639 11.1007 19.1264 11.4417 19.4674C11.7827 19.8084 12.2452 20 12.7275 20C13.2098 20 13.6723 19.8084 14.0133 19.4674C14.3543 19.1264 14.5458 18.6639 14.5458 18.1817V7.27333C14.5459 7.03448 14.499 6.79794 14.4077 6.57723C14.3163 6.35652 14.1824 6.15597 14.0136 5.98704C13.8447 5.8181 13.6442 5.68409 13.4235 5.59266C13.2029 5.50123 12.9664 5.45417 12.7275 5.45417ZM1.81833 10.9092C0.833333 10.9092 0.0308333 11.6925 0.00166667 12.6708L0 12.7275V18.1817C0 18.6639 0.191574 19.1264 0.532577 19.4674C0.873581 19.8084 1.33608 20 1.81833 20C2.30059 20 2.76309 19.8084 3.10409 19.4674C3.44509 19.1264 3.63667 18.6639 3.63667 18.1817V12.7275C3.63667 12.2452 3.44509 11.7827 3.10409 11.4417C2.76309 11.1007 2.30059 10.9092 1.81833 10.9092ZM7.2725 16.3633C6.79025 16.3633 6.32775 16.5549 5.98674 16.8959C5.64574 17.2369 5.45417 17.6994 5.45417 18.1817C5.45417 18.4205 5.5012 18.6569 5.59258 18.8775C5.68396 19.0981 5.8179 19.2986 5.98674 19.4674C6.15559 19.6363 6.35604 19.7702 6.57665 19.8616C6.79726 19.953 7.03371 20 7.2725 20C7.75475 20 8.21725 19.8084 8.55826 19.4674C8.89926 19.1264 9.09083 18.6639 9.09083 18.1817C9.09083 17.6994 8.89926 17.2369 8.55826 16.8959C8.21725 16.5549 7.75475 16.3633 7.2725 16.3633Z" fill="#AAAAAA"/>
</g>
<defs>
<clipPath id="clip0_28_1596">
<rect width="20" height="20" fill="white"/>
</clipPath>
</defs>
</svg>
