<svg width="20" height="20" viewBox="0 0 20 20" fill="none" xmlns="http://www.w3.org/2000/svg">
<g clip-path="url(#clip0_28_1658)">
<path d="M16.1292 15.4483C16.666 14.641 17.1822 13.8202 17.6775 12.9867C17.7442 12.8706 17.7749 12.7374 17.7657 12.6038C17.7565 12.4703 17.7078 12.3425 17.6258 12.2367C17.1958 11.6658 16.3725 10.5075 15.9242 9.43502C15.4633 8.33418 15.3942 6.62252 15.3908 5.78752C15.3916 5.47077 15.2866 5.16283 15.0925 4.91252L12.4275 1.52585C12.4175 1.67803 12.3963 1.82927 12.3642 1.97835C12.2758 2.39752 12.1083 2.81502 11.9175 3.22835C11.8058 3.47002 11.6758 3.72835 11.5458 3.99002L11.2875 4.51168C10.8575 5.40168 10.4567 6.36752 10.3442 7.50335C10.2408 8.55335 10.3825 9.77835 11.0233 11.2375C11.13 11.2467 11.2375 11.2584 11.345 11.2742C12.3716 11.4125 13.3351 11.8485 14.1167 12.5283C14.88 13.1867 15.57 14.13 16.1292 15.445V15.4483ZM6.8325 18.8075C6.89334 18.8175 6.95417 18.8242 7.01584 18.8242C7.66584 18.8442 8.76167 18.9009 9.64917 19.0658C10.3742 19.1992 11.81 19.5992 12.9908 19.945C13.8933 20.2083 14.8225 19.4883 14.9533 18.5583C15.0483 17.88 15.2283 17.1125 15.5575 16.4083L15.5492 16.4125C14.9908 14.8542 14.2808 13.8475 13.5358 13.205C12.8836 12.6364 12.0785 12.2721 11.2208 12.1575C9.9375 11.9775 8.76084 12.3158 8.02084 12.5325C8.46417 14.3808 8.3275 16.5567 6.83334 18.8083L6.8325 18.8075ZM4.61084 8.28168C4.59167 8.36502 4.56417 8.44585 4.52917 8.52335L2.35 13.3825C2.24062 13.6265 2.207 13.8977 2.25351 14.1609C2.30001 14.4242 2.4245 14.6675 2.61084 14.8592L6.04084 18.3925C7.79334 15.8083 7.5375 13.3758 6.7375 11.4759C6.13084 10.0342 5.21084 8.90835 4.6125 8.28335L4.61084 8.28168ZM7.76667 11.675C8.27917 11.5225 9.105 11.2875 10.0542 11.23C9.485 9.79252 9.3475 8.53585 9.4575 7.41585C9.58584 6.12252 10.0408 5.04335 10.4867 4.12418C10.5808 3.92835 10.6725 3.74585 10.76 3.57085C10.8842 3.32335 11 3.09002 11.1092 2.85418C11.29 2.46252 11.425 2.11668 11.4925 1.79585C11.5592 1.47918 11.5592 1.19585 11.4808 0.926683C11.4017 0.65585 11.2333 0.364184 10.9142 0.0433502C10.7005 -0.0123498 10.4763 -0.0140967 10.2617 0.0382663C10.0472 0.0906294 9.84902 0.195463 9.685 0.34335L5.56 4.05335C5.32986 4.26025 5.17874 4.54068 5.1325 4.84668L4.77667 7.20502C5.33667 7.69668 6.71667 9.13502 7.55584 11.1308C7.63084 11.3059 7.70167 11.4892 7.76667 11.675Z" fill="#AAAAAA"/>
</g>
<defs>
<clipPath id="clip0_28_1658">
<rect width="20" height="20" fill="white"/>
</clipPath>
</defs>
</svg>
