<svg width="20" height="20" viewBox="0 0 20 20" fill="none" xmlns="http://www.w3.org/2000/svg">
<g clip-path="url(#clip0_28_1588)">
<path d="M19.1938 9.41371C19.1519 9.41371 19.11 9.41371 19.0681 9.42421L15.7173 3.2253C15.7801 3.11005 15.8115 2.98446 15.8115 2.8483C15.8115 2.39805 15.445 2.04205 15.0053 2.04205C14.7749 2.04205 14.5655 2.13621 14.4189 2.2933L7.73837 0.963465C7.69646 0.565548 7.35087 0.251465 6.93204 0.251465C6.49229 0.251465 6.12579 0.617965 6.12579 1.05771C6.12579 1.19388 6.15721 1.31946 6.21996 1.43471L1.01579 8.90063C0.953039 8.87971 0.879705 8.86922 0.806372 8.86922C0.356122 8.86922 0.00012207 9.23571 0.00012207 9.67555C0.00012207 10.1258 0.366622 10.4818 0.806372 10.4818H0.837789L3.64412 17.4242C3.60221 17.529 3.57079 17.6441 3.57079 17.7592C3.57079 18.2095 3.93729 18.5655 4.37712 18.5655C4.60746 18.5655 4.81687 18.4714 4.96346 18.3143L13.3928 19.1415C13.4765 19.4975 13.8011 19.7488 14.1781 19.7488C14.6284 19.7488 14.9845 19.3823 14.9845 18.9425C14.9845 18.7435 14.9111 18.555 14.796 18.419L19.0577 11.0263C19.0996 11.0368 19.1415 11.0368 19.1939 11.0368C19.6441 11.0368 20.0001 10.6703 20.0001 10.2305C20.0001 9.78021 19.644 9.41371 19.1938 9.41371ZM14.356 3.35096C14.4503 3.47663 14.5865 3.57096 14.733 3.62321L13.4555 13.2672C13.3718 13.2882 13.2985 13.3091 13.2252 13.351L6.20946 7.2568C6.23037 7.19396 6.24087 7.12063 6.24087 7.0473C6.24087 6.99496 6.23037 6.94263 6.23037 6.8903L14.356 3.35096ZM18.4189 10.44L14.1047 13.4033C14.0712 13.3801 14.0363 13.3591 14 13.3405L15.288 3.61263H15.2985L18.5865 9.68596C18.4608 9.83255 18.3875 10.0105 18.3875 10.22C18.3875 10.3037 18.398 10.3772 18.4189 10.44ZM5.31937 6.25146C4.93196 6.3143 4.62829 6.64938 4.62829 7.0473V7.09963L1.74871 8.80638L6.23037 2.38755L5.31937 6.25146ZM5.61262 7.84313C5.71729 7.82213 5.82204 7.7698 5.90579 7.70696L12.8691 13.7593C12.8377 13.8535 12.8168 13.9478 12.8168 14.0525V14.0944L5.05762 17.2985C4.94246 17.131 4.76446 17.0054 4.55504 16.9635L5.61262 7.84313ZM13.0262 14.6075C13.131 14.7226 13.2775 14.8169 13.445 14.8483L13.8325 18.22C13.665 18.3038 13.5393 18.44 13.4555 18.597L5.27754 17.8011L13.0262 14.6075ZM13.9791 14.7855C14.2514 14.6494 14.4294 14.3771 14.4294 14.063C14.4294 13.9896 14.4189 13.9268 14.398 13.8535L18.3456 11.1415L14.3456 18.084L13.9791 14.7855ZM14.1885 2.82738L5.94771 6.41905L5.85346 6.35613L6.90054 1.86396H6.93196C7.21471 1.86396 7.46604 1.71738 7.61262 1.49755L14.1885 2.80638L14.1885 2.82738ZM1.61254 9.67555C1.61254 9.62313 1.60204 9.5708 1.60204 9.51846L4.85862 7.60221C4.92145 7.66505 4.99471 7.72788 5.07845 7.76971L4.02104 16.8693L1.35079 10.283C1.50787 10.1363 1.61254 9.91638 1.61254 9.67555Z" fill="#AAAAAA"/>
</g>
<defs>
<clipPath id="clip0_28_1588">
<rect width="20" height="20" fill="white"/>
</clipPath>
</defs>
</svg>
