<svg width="20" height="20" viewBox="0 0 20 20" fill="none" xmlns="http://www.w3.org/2000/svg">
<g clip-path="url(#clip0_28_1604)">
<path d="M18.5682 8.18423C18.7919 7.51079 18.8692 6.79739 18.7951 6.09168C18.721 5.38596 18.4971 4.70419 18.1385 4.0919C17.6068 3.16642 16.7949 2.43369 15.82 1.99936C14.845 1.56503 13.7573 1.45153 12.7137 1.67523C12.1207 1.0157 11.3647 0.523789 10.5215 0.248906C9.67836 -0.0259764 8.77768 -0.0741542 7.90998 0.109212C7.04228 0.292578 6.2381 0.701031 5.57821 1.29355C4.91833 1.88607 4.42597 2.64179 4.15058 3.48481C3.4553 3.62739 2.79846 3.91672 2.22396 4.33347C1.64945 4.75023 1.17052 5.28481 0.819162 5.90148C0.281691 6.82542 0.0519796 7.89634 0.163238 8.95943C0.274496 10.0225 0.720959 11.0227 1.43808 11.8153C1.21363 12.4884 1.13552 13.2017 1.20895 13.9074C1.28239 14.6132 1.50569 15.2951 1.86391 15.9076C2.39628 16.8334 3.20884 17.5663 4.1845 18.0006C5.16016 18.4349 6.24853 18.5483 7.29275 18.3243C7.7638 18.8548 8.3426 19.2786 8.9905 19.5676C9.63841 19.8566 10.3405 20.004 11.0499 20C12.1196 20.001 13.1619 19.662 14.0265 19.0321C14.891 18.4021 15.533 17.5137 15.8597 16.4951C16.5549 16.3523 17.2117 16.0629 17.7862 15.6461C18.3606 15.2294 18.8396 14.6949 19.1912 14.0784C19.7223 13.1558 19.948 12.0889 19.8362 11.0303C19.7243 9.97163 19.2805 8.9754 18.5682 8.18423ZM11.0499 18.691C10.1738 18.6924 9.32525 18.3853 8.65291 17.8236L8.77116 17.7566L12.7531 15.4581C12.8522 15.4 12.9345 15.3171 12.9918 15.2176C13.0492 15.118 13.0797 15.0053 13.0803 14.8904V9.27631L14.7637 10.2501C14.772 10.2544 14.7792 10.2605 14.7847 10.268C14.7902 10.2755 14.7938 10.2843 14.7953 10.2935V14.9456C14.7932 15.9383 14.3979 16.8898 13.696 17.5917C12.994 18.2936 12.0426 18.6889 11.0499 18.691ZM2.99933 15.2531C2.55997 14.4945 2.40222 13.6052 2.55383 12.7417L2.67216 12.8127L6.658 15.1112C6.75662 15.1691 6.8689 15.1996 6.98325 15.1996C7.09759 15.1996 7.20987 15.1691 7.3085 15.1112L12.1775 12.3041V14.2478C12.177 14.2579 12.1743 14.2677 12.1695 14.2766C12.1647 14.2855 12.158 14.2932 12.1498 14.2991L8.11666 16.6251C7.25593 17.121 6.23362 17.255 5.27417 16.9978C4.31472 16.7405 3.49656 16.1131 2.99933 15.2531ZM1.95066 6.57965C2.39306 5.81612 3.09136 5.23375 3.92191 4.93565V9.66665C3.92041 9.78094 3.94962 9.89355 4.00648 9.99271C4.06333 10.0919 4.14576 10.174 4.24516 10.2304L9.0905 13.0256L7.40708 13.9994C7.39797 14.0042 7.38781 14.0068 7.3775 14.0068C7.36718 14.0068 7.35702 14.0042 7.34791 13.9994L3.32266 11.6773C2.46355 11.1793 1.83679 10.3612 1.57963 9.40204C1.32248 8.44291 1.4559 7.42095 1.95066 6.55998V6.57965ZM15.7809 9.79281L10.9198 6.96998L12.5993 5.99998C12.6084 5.99514 12.6186 5.99261 12.6289 5.99261C12.6392 5.99261 12.6494 5.99514 12.6585 5.99998L16.6837 8.32606C17.2992 8.68119 17.8009 9.20407 18.1304 9.83365C18.4598 10.4632 18.6034 11.1735 18.5443 11.8816C18.4851 12.5898 18.2258 13.2664 17.7966 13.8327C17.3673 14.3989 16.7858 14.8314 16.12 15.0796V10.3486C16.1165 10.2345 16.0834 10.1232 16.0239 10.0258C15.9645 9.92833 15.8808 9.8481 15.7809 9.79281ZM17.4565 7.27356L17.3382 7.20256L13.3602 4.8844C13.261 4.82617 13.148 4.79547 13.033 4.79547C12.9179 4.79547 12.805 4.82617 12.7057 4.8844L7.84083 7.6914V5.74781C7.83979 5.73793 7.84144 5.72795 7.84561 5.71893C7.84978 5.70991 7.8563 5.70218 7.8645 5.69656L11.8897 3.3744C12.5067 3.01899 13.212 2.84659 13.9233 2.87736C14.6347 2.90813 15.3225 3.14079 15.9064 3.54813C16.4904 3.95548 16.9463 4.52066 17.2208 5.17759C17.4953 5.83452 17.5771 6.55602 17.4566 7.25773L17.4565 7.27356ZM6.92208 10.7191L5.23875 9.74931C5.23032 9.74424 5.22312 9.73738 5.21765 9.72921C5.21218 9.72105 5.20857 9.71178 5.20708 9.70206V5.06181C5.208 4.34996 5.41156 3.65308 5.79395 3.05265C6.17635 2.45222 6.72177 1.97305 7.36645 1.67118C8.01113 1.3693 8.72842 1.2572 9.43447 1.34796C10.1405 1.43873 10.8061 1.72861 11.3535 2.18373L11.2352 2.25081L7.25333 4.54915C7.15422 4.60727 7.07194 4.69017 7.01457 4.78971C6.95719 4.88925 6.9267 5.00201 6.92608 5.1169L6.92208 10.7191ZM7.83675 8.74798L10.0051 7.49815L12.1775 8.74798V11.2475L10.013 12.4972L7.84075 11.2475L7.83675 8.74798Z" fill="#AAAAAA"/>
</g>
<defs>
<clipPath id="clip0_28_1604">
<rect width="20" height="20" fill="white"/>
</clipPath>
</defs>
</svg>
