<svg width="20" height="20" viewBox="0 0 20 20" fill="none" xmlns="http://www.w3.org/2000/svg">
<g clip-path="url(#clip0_28_1579)">
<path d="M19.6328 12.269C19.6214 12.2341 19.6056 12.2007 19.5859 12.1698C19.4701 11.9504 19.1886 11.8849 18.7464 11.9763C17.3686 12.2606 16.8351 12.0857 16.6417 11.9604C17.7601 10.2536 18.6792 8.19209 19.176 6.269C19.4021 5.39342 19.8411 3.33258 19.2778 2.326C19.2418 2.2571 19.1997 2.19157 19.1521 2.13017C18.0776 0.757168 16.5006 0.0206678 14.5916 0.000417836C13.346 -0.0127488 12.2828 0.288835 11.9948 0.399918C11.8522 0.373294 11.7088 0.350619 11.5649 0.331918C11.2041 0.266593 10.8386 0.230973 10.4721 0.225418C9.4869 0.210085 8.63556 0.445585 7.93056 0.925918C7.21615 0.658335 3.9399 -0.444915 1.91231 0.991585C0.779895 1.79383 0.257145 3.22775 0.358478 5.25358C0.392562 5.93525 0.780895 8.03192 1.39373 10.0399C1.7769 11.2953 2.17598 12.2915 2.58823 13.0249C3.04906 13.8534 3.52648 14.3527 4.01681 14.5162C4.38965 14.6404 4.96073 14.6363 5.56523 13.9096C6.2329 13.1067 6.89048 12.3881 7.18573 12.0705C7.54831 12.2668 7.94106 12.3726 8.34406 12.3848C8.34413 12.386 8.34424 12.3871 8.3444 12.3883C8.27422 12.4719 8.20555 12.5567 8.1384 12.6428C7.85598 13.0013 7.79723 13.0758 6.88823 13.263C6.62973 13.3163 5.9429 13.4579 5.9329 13.9393C5.93081 14.0413 5.96031 14.1317 6.00948 14.2116C6.19856 14.5642 6.77748 14.7197 6.85531 14.7392C7.9674 15.0171 8.94231 14.8158 9.66481 14.1736C9.65065 16.0328 9.7294 17.8548 9.95265 18.4131C10.137 18.8738 10.5875 20.0002 12.0103 20C12.2191 20 12.4489 19.9758 12.7016 19.9216C14.1866 19.6032 14.8314 18.9469 15.0808 17.5C15.2061 16.7744 15.4155 15.1039 15.5298 14.0823C15.5439 14.0238 15.5596 13.9818 15.5773 13.9688C15.5779 13.9684 15.6354 13.9296 15.9333 13.9944C15.9455 13.9971 15.9578 13.999 15.9702 14.0001L16.1818 14.0187L16.1942 14.0195C16.8999 14.0515 17.7871 13.9007 18.3036 13.6605C18.8401 13.4115 19.8083 12.8003 19.6328 12.269ZM1.97581 9.89708C1.35623 7.86725 0.994228 5.82617 0.965562 5.25383C0.875062 3.44433 1.31315 2.18475 2.26748 1.50992C3.79806 0.427751 6.30065 1.05925 7.35748 1.40158C7.35481 1.40425 7.35198 1.40667 7.34931 1.40942C5.66281 3.11275 5.70281 6.02275 5.70698 6.20067C5.70681 6.26925 5.71248 6.36642 5.72048 6.50008C5.74948 6.9895 5.80348 7.90042 5.65923 8.93209C5.52515 9.89075 5.82065 10.8291 6.4699 11.5064C6.53706 11.5765 6.60723 11.6423 6.67973 11.7043C6.39073 12.0138 5.76273 12.6981 5.09431 13.5023C4.62123 14.071 4.29456 13.962 4.18715 13.9262C3.86056 13.8173 3.50965 13.4369 3.1554 12.8243C2.75573 12.1251 2.35248 11.1312 1.97581 9.89708ZM6.98181 14.1363C6.83923 14.1007 6.70923 14.042 6.62165 13.9887C6.69573 13.9558 6.81948 13.9135 7.0244 13.8713C8.09381 13.6512 8.25898 13.4958 8.61965 13.0378C8.70231 12.9328 8.79598 12.8138 8.92573 12.6689C8.95364 12.6376 8.97457 12.6008 8.98715 12.5608C9.12948 12.4347 9.21415 12.4692 9.35123 12.526C9.48123 12.5798 9.60773 12.7427 9.65915 12.922C9.6834 13.0067 9.71073 13.1674 9.62148 13.2923C8.8679 14.3472 7.77014 14.3335 6.98181 14.1363ZM8.72681 10.813L8.68306 10.9305C8.57223 11.2277 8.46915 11.5039 8.40523 11.7663C7.84906 11.7646 7.3079 11.527 6.89648 11.0977C6.37323 10.5518 6.13556 9.79233 6.2444 9.014C6.39673 7.92408 6.34048 6.975 6.31023 6.46517C6.30606 6.39375 6.30231 6.33125 6.30006 6.28192C6.54648 6.0635 7.68831 5.45175 8.50248 5.63825C8.87406 5.72342 9.10048 5.97634 9.19456 6.41158C9.68173 8.66475 9.25906 9.60383 8.9194 10.3585C8.8494 10.514 8.78331 10.6609 8.72681 10.813ZM14.8632 14.6234C14.8491 14.7708 14.8334 14.9368 14.8117 15.12L14.6901 15.4853C14.6804 15.5142 14.6753 15.5445 14.6749 15.575C14.67 15.9706 14.6299 16.1158 14.5791 16.2994C14.5262 16.4904 14.4663 16.707 14.4296 17.1807C14.3379 18.3593 13.6977 19.0363 12.4152 19.3111C11.1523 19.582 10.9283 18.8971 10.7309 18.293C10.7107 18.2297 10.6893 18.1667 10.6668 18.1042C10.4873 17.616 10.5076 16.9276 10.5356 15.9749C10.5494 15.5073 10.5149 14.3905 10.2605 13.7698C10.2641 13.5254 10.2693 13.2773 10.2763 13.0266C10.2772 12.9948 10.2729 12.9631 10.2636 12.9328C10.2555 12.8742 10.2433 12.8163 10.227 12.7594C10.1248 12.4025 9.8759 12.1039 9.57723 11.9802C9.45856 11.931 9.24073 11.8408 8.97906 11.9078C9.0349 11.6778 9.13165 11.4182 9.23656 11.137L9.28065 11.0187C9.33023 10.8853 9.39231 10.7473 9.45815 10.601C9.81356 9.81133 10.3003 8.72992 9.77198 6.28667C9.57415 5.37158 8.91331 4.92475 7.91165 5.0285C7.31106 5.09067 6.76173 5.333 6.48765 5.47192C6.4327 5.49977 6.3783 5.52869 6.32448 5.55867C6.40098 4.63667 6.68998 2.91358 7.7709 1.82342C7.85119 1.74251 7.93555 1.66575 8.02365 1.59342C8.06738 1.58489 8.10861 1.56654 8.14423 1.53975C8.77123 1.06425 9.55631 0.830918 10.4792 0.846001C10.8201 0.851585 11.1473 0.874251 11.4577 0.913501C13.0736 1.20883 14.161 2.11917 14.821 2.89908C15.4996 3.701 15.867 4.50867 16.0136 4.94433C14.911 4.83217 14.1608 5.05 13.7806 5.5935C12.9534 6.77592 14.2331 9.07092 14.8481 10.1738C14.9609 10.376 15.0583 10.5507 15.0889 10.6249C15.2891 11.1103 15.5485 11.4343 15.7378 11.6709C15.7958 11.7434 15.8521 11.8138 15.8949 11.8751C15.5609 11.9713 14.9609 12.1938 15.0156 13.3059C15.0053 13.4362 14.9803 13.6783 14.9461 13.9849C14.9076 14.158 14.8876 14.3685 14.8632 14.6234ZM15.6053 13.2725C15.5716 12.5795 15.8296 12.5071 16.1026 12.4304C16.1403 12.4201 16.1778 12.4088 16.2151 12.3966C16.2503 12.4278 16.2876 12.4565 16.3269 12.4824C16.8021 12.7962 17.6455 12.8335 18.8326 12.5944C18.6646 12.7418 18.4001 12.9273 18.0381 13.0953C17.6966 13.2539 17.1251 13.3728 16.5821 13.3983C15.9823 13.4263 15.6771 13.3311 15.6053 13.2725ZM16.0799 5.5465C16.075 5.83883 16.0347 6.10417 15.9921 6.38125C15.9462 6.67925 15.8987 6.98742 15.8867 7.36142C15.8749 7.72542 15.9204 8.10384 15.9644 8.46983C16.0532 9.209 16.1444 9.97008 15.7915 10.721C15.7329 10.6172 15.6807 10.5099 15.6351 10.3997C15.5912 10.2933 15.4961 10.1225 15.3642 9.88617C14.8512 8.96608 13.6497 6.8115 14.2648 5.93233C14.5811 5.48008 15.3821 5.46058 16.0799 5.5465ZM16.2702 11.3913C16.2467 11.3613 16.223 11.3315 16.1991 11.3018L16.1696 11.2648C16.7747 10.2652 16.6564 9.27625 16.5511 8.39933C16.5078 8.0395 16.467 7.69967 16.4773 7.3805C16.4881 7.04208 16.5328 6.75192 16.5761 6.47125C16.6293 6.12542 16.6834 5.76767 16.6685 5.34583C16.6796 5.30158 16.6841 5.24933 16.6783 5.18734C16.6402 4.78275 16.1784 3.57233 15.2371 2.4765C14.7308 1.88708 13.9958 1.22883 12.9964 0.776918C13.434 0.688085 14.0237 0.607335 14.6834 0.622001C16.393 0.660001 17.7456 1.29992 18.7036 2.524C18.7239 2.55057 18.7425 2.57847 18.7591 2.6075C19.3617 3.73717 18.529 7.83675 16.2702 11.3913ZM8.92306 6.29442C8.90223 6.44392 8.66565 6.6465 8.40548 6.6465C8.38293 6.64651 8.3604 6.64496 8.33806 6.64183C8.18198 6.62017 8.02431 6.52183 7.91648 6.37883C7.87831 6.32842 7.81623 6.2305 7.82856 6.14183C7.83315 6.10842 7.85031 6.05975 7.90565 6.01783C8.00415 5.94333 8.19881 5.91567 8.41365 5.94558C8.67723 5.98233 8.94915 6.10708 8.92306 6.29442ZM15.5318 5.95158C15.5411 6.01758 15.491 6.11908 15.4042 6.21008C15.3473 6.26983 15.2276 6.3735 15.0643 6.39608C15.0436 6.39896 15.0227 6.40041 15.0018 6.40042C14.7572 6.40042 14.5506 6.20508 14.5346 6.09067C14.5146 5.94358 14.7546 5.83183 15.0021 5.79733C15.2496 5.76283 15.5114 5.80467 15.5318 5.95158Z" fill="#AAAAAA"/>
</g>
<defs>
<clipPath id="clip0_28_1579">
<rect width="20" height="20" fill="white"/>
</clipPath>
</defs>
</svg>
