<svg width="20" height="20" viewBox="0 0 20 20" fill="none" xmlns="http://www.w3.org/2000/svg">
<path d="M8.21167 12.0833L4.16667 8.0391L0.711667 4.58326C0.653393 4.52484 0.579083 4.48504 0.49816 4.4689C0.417236 4.45276 0.333342 4.46101 0.257115 4.49261C0.180887 4.52421 0.115758 4.57773 0.0699838 4.64639C0.02421 4.71504 -0.00014697 4.79575 6.67209e-07 4.87826V7.03326C2.40997e-05 7.14356 0.0437765 7.24934 0.121667 7.32743L4.16667 11.3724L4.28917 11.4941L8.21167 15.4166L8.33333 15.5391V15.4983C8.3875 15.5233 8.445 15.5391 8.50583 15.5391H10.6608C10.7433 15.5391 10.8239 15.5146 10.8924 15.4688C10.9609 15.4229 11.0143 15.3578 11.0458 15.2816C11.0773 15.2054 11.0855 15.1216 11.0693 15.0407C11.0532 14.9599 11.0134 14.8857 10.955 14.8274L8.21167 12.0833ZM8.21167 7.9166L4.87833 4.58326C4.83465 4.5383 4.78114 4.50406 4.72201 4.48324C4.66288 4.46242 4.59972 4.45558 4.5375 4.46326C4.47865 4.47036 4.4219 4.48958 4.37084 4.5197C4.31978 4.54982 4.27552 4.59019 4.24083 4.63826C4.19166 4.70856 4.16573 4.79248 4.16667 4.87826V7.03326C4.16691 7.14368 4.21097 7.24948 4.28917 7.32743L11.7892 14.8274C11.8475 14.8856 11.9217 14.9251 12.0025 14.9411C12.0833 14.9571 12.167 14.9487 12.243 14.9172C12.3191 14.8856 12.3841 14.8322 12.4298 14.7638C12.4756 14.6953 12.5 14.6148 12.5 14.5324V12.3783C12.5001 12.3235 12.4894 12.2693 12.4685 12.2187C12.4477 12.168 12.417 12.122 12.3783 12.0833L8.21167 7.9166ZM9.045 4.58326C8.98673 4.52484 8.91242 4.48504 8.83149 4.4689C8.75057 4.45276 8.66668 4.46101 8.59045 4.49261C8.51422 4.52421 8.44909 4.57773 8.40332 4.64639C8.35754 4.71504 8.33319 4.79575 8.33333 4.87826V7.03326C8.33358 7.14368 8.37764 7.24948 8.45583 7.32743L11.7892 10.6608C11.8475 10.7189 11.9217 10.7585 12.0025 10.7744C12.0833 10.7904 12.167 10.7821 12.243 10.7505C12.3191 10.719 12.3841 10.6656 12.4298 10.5971C12.4756 10.5286 12.5 10.4481 12.5 10.3658V8.2116C12.5001 8.15684 12.4894 8.10261 12.4685 8.05199C12.4477 8.00137 12.417 7.95536 12.3783 7.9166L9.045 4.58326ZM19.5842 14.1791C18.88 14.0871 18.2261 13.7648 17.7242 13.2624L13.8008 9.33993C13.7426 9.28151 13.6682 9.2417 13.5873 9.22557C13.5064 9.20943 13.4225 9.21768 13.3463 9.24928C13.2701 9.28087 13.2049 9.3344 13.1592 9.40305C13.1134 9.47171 13.089 9.55241 13.0892 9.63493V15.1224C13.0892 15.2329 13.1331 15.3389 13.2112 15.4171C13.2893 15.4952 13.3953 15.5391 13.5058 15.5391H19.5833C19.6938 15.5391 19.7998 15.4952 19.878 15.4171C19.9561 15.3389 20 15.2329 20 15.1224V14.6224C20 14.3924 19.8125 14.2083 19.5842 14.1791ZM15.0892 14.2058C14.9124 14.2058 14.7428 14.1355 14.6178 14.0105C14.4927 13.8855 14.4225 13.7159 14.4225 13.5391C14.4225 13.3623 14.4927 13.1927 14.6178 13.0677C14.7428 12.9427 14.9124 12.8724 15.0892 12.8724C15.266 12.8724 15.4355 12.9427 15.5606 13.0677C15.6856 13.1927 15.7558 13.3623 15.7558 13.5391C15.7558 13.7159 15.6856 13.8855 15.5606 14.0105C15.4355 14.1355 15.266 14.2058 15.0892 14.2058ZM0.711667 12.9166C0.653393 12.8582 0.579083 12.8184 0.49816 12.8022C0.417236 12.7861 0.333342 12.7943 0.257115 12.8259C0.180887 12.8575 0.115758 12.9111 0.0699838 12.9797C0.02421 13.0484 -0.00014697 13.1291 6.67209e-07 13.2116V15.1224C6.67209e-07 15.2329 0.0438994 15.3389 0.12204 15.4171C0.20018 15.4952 0.30616 15.5391 0.416667 15.5391H2.3275C2.5125 15.5391 2.6525 15.4266 2.7125 15.2816C2.74479 15.2055 2.75339 15.1215 2.73718 15.0405C2.72098 14.9595 2.68072 14.8852 2.62167 14.8274L0.711667 12.9174V12.9166ZM4.16667 12.2058L0.711667 8.74993C0.653443 8.69156 0.57921 8.65177 0.498364 8.63561C0.417518 8.61944 0.333694 8.62762 0.2575 8.65912C0.181306 8.69061 0.116169 8.744 0.0703317 8.81253C0.0244945 8.88106 1.81796e-05 8.96165 6.67209e-07 9.0441V11.1991C2.40997e-05 11.3094 0.0437765 11.4152 0.121667 11.4933L4.045 15.4166L4.16667 15.5391H6.49417C6.57661 15.5391 6.6572 15.5146 6.72573 15.4688C6.79426 15.4229 6.84765 15.3578 6.87915 15.2816C6.91064 15.2054 6.91882 15.1216 6.90266 15.0407C6.88649 14.9599 6.84671 14.8857 6.78833 14.8274L4.16667 12.2058Z" fill="#AAAAAA"/>
</svg>
