<svg width="20" height="20" viewBox="0 0 20 20" fill="none" xmlns="http://www.w3.org/2000/svg">
<g clip-path="url(#clip0_28_1563)">
<path d="M11.875 0.15L12.625 0.316667L13.2333 0.533333L13.725 0.783333L14.1 1.05L14.3833 1.33333L14.5916 1.61667L14.725 1.89167L14.8083 2.14167L14.8416 2.35833L14.8583 2.525L14.85 2.63333V7.08333L14.8083 7.60833L14.7 8.06667L14.525 8.45L14.3083 8.76667L14.0583 9.025L13.7833 9.23333L13.4916 9.39167L13.2 9.50833L12.925 9.59167L12.675 9.65L12.4583 9.68333L12.2833 9.7H7.30832L6.73332 9.74167L6.24165 9.85833L5.82498 10.0417L5.48331 10.2667L5.20832 10.5333L4.98332 10.825L4.81665 11.125L4.69165 11.4333L4.60832 11.725L4.54998 11.9917L4.51665 12.2167L4.49998 12.3917V14.9417H2.64165L2.46665 14.9167L2.23332 14.8583L1.96665 14.7583L1.67498 14.6083L1.37498 14.3917L1.07498 14.0917L0.783315 13.7083L0.516648 13.2167L0.283315 12.6083L0.108315 11.875L-0.00835164 11L-0.0500183 9.975L-1.83098e-05 8.95833L0.133315 8.09167L0.333315 7.36667L0.599982 6.775L0.899982 6.3L1.23332 5.93333L1.58332 5.65833L1.93332 5.45833L2.26665 5.325L2.56665 5.24167L2.83332 5.2L3.03332 5.19167H3.16665L3.21665 5.2H10.0166V4.50833H5.14998L5.14165 2.21667L5.12498 1.90833L5.16665 1.625L5.25832 1.36667L5.39998 1.13333L5.60832 0.916667L5.86665 0.725L6.18332 0.558333L6.54998 0.408333L6.97498 0.283333L7.45832 0.183333L7.99165 0.1L8.58332 0.05L9.22498 0.0166667L9.92498 0L10.9833 0.0416667L11.875 0.15ZM6.62498 1.8L6.43332 2.075L6.36665 2.41667L6.43332 2.75833L6.62498 3.04167L6.89998 3.225L7.24165 3.3L7.58332 3.225L7.85832 3.04167L8.04998 2.75833L8.11665 2.41667L8.04998 2.075L7.85832 1.8L7.58332 1.61667L7.24165 1.54167L6.89998 1.61667L6.62498 1.8ZM17.5333 5.09167L17.7666 5.14167L18.0333 5.24167L18.325 5.39167L18.625 5.61667L18.925 5.90833L19.2166 6.3L19.4833 6.79167L19.7166 7.4L19.8916 8.13333L20.0083 9L20.05 10.025L20 11.05L19.8666 11.9167L19.6666 12.6333L19.4 13.225L19.1 13.7L18.7666 14.075L18.4166 14.35L18.0666 14.55L17.7333 14.6833L17.4333 14.7583L17.1666 14.8L16.9667 14.8167L16.8333 14.8083H9.98332V15.4917H14.85L14.8583 17.7917L14.875 18.0917L14.8333 18.375L14.7416 18.6333L14.6 18.875L14.3916 19.0833L14.1333 19.2833L13.8166 19.45L13.45 19.5917L13.025 19.7167L12.5416 19.825L12.0083 19.9L11.4166 19.9583L10.775 19.9917L10.075 20L9.01665 19.9667L8.12498 19.85L7.37498 19.6833L6.76665 19.475L6.27498 19.225L5.89998 18.95L5.61665 18.6667L5.40832 18.3833L5.27498 18.1083L5.19165 17.8583L5.15832 17.65L5.14165 17.4833L5.14998 17.375V12.925L5.19165 12.3917L5.29998 11.9417L5.47498 11.5583L5.69165 11.2417L5.94165 10.975L6.21665 10.775L6.50832 10.6083L6.79998 10.4917L7.07498 10.4083L7.32498 10.3583L7.54165 10.325L7.71665 10.3083L7.82498 10.3H12.6916L13.2666 10.2583L13.7583 10.1417L14.175 9.96667L14.5166 9.73333L14.7916 9.46667L15.0166 9.175L15.1833 8.875L15.3083 8.575L15.3916 8.28333L15.45 8.01667L15.4833 7.78333L15.5 7.60833V5.05833H17.2416L17.3583 5.06667L17.5333 5.09167ZM12.1416 16.9667L11.95 17.2417L11.8833 17.5833L11.95 17.925L12.1416 18.2L12.4166 18.3917L12.7583 18.4583L13.1 18.3917L13.375 18.2L13.5666 17.925L13.6333 17.5833L13.5666 17.2417L13.375 16.9667L13.1 16.775L12.7583 16.7083L12.4166 16.775L12.1416 16.9667Z" fill="#AAAAAA"/>
</g>
<defs>
<clipPath id="clip0_28_1563">
<rect width="20" height="20" fill="white"/>
</clipPath>
</defs>
</svg>
