<svg width="20" height="20" viewBox="0 0 20 20" fill="none" xmlns="http://www.w3.org/2000/svg">
<g clip-path="url(#clip0_28_1633)">
<path d="M16.5796 9.08006L16.4357 8.82772C16.4414 7.01556 15.6006 6.27689 14.6201 5.71539C14.9167 5.63722 15.2232 5.57281 15.3072 5.20022C15.817 5.06972 15.9236 4.83372 15.9747 4.58372C16.1081 4.49489 16.5543 4.24531 16.5076 3.81614C16.7574 3.64372 16.8967 3.42239 16.8258 3.10889C17.0943 2.81597 17.165 2.57397 17.051 2.35089C17.3733 1.95047 17.2303 1.74297 17.0927 1.53281C17.3341 1.09497 17.1211 0.625555 16.4462 0.704139C16.1777 0.309722 15.5925 0.399222 15.502 0.401055C15.4007 0.274472 15.2671 0.165972 14.8557 0.218555C14.5893 -0.0190282 14.2915 0.0215551 13.9842 0.138222C13.6194 -0.145362 13.378 0.0819718 13.1022 0.167888C12.6606 0.0257218 12.5595 0.220472 12.3425 0.299805C11.8607 0.199555 11.7143 0.417805 11.4834 0.648305L11.2147 0.643055C10.4882 1.06481 10.1272 1.92356 9.99933 2.36506C9.87133 1.92347 9.51116 1.06472 8.78475 0.643055L8.51616 0.648305C8.285 0.417805 8.13858 0.199472 7.65691 0.299722C7.43991 0.220472 7.33916 0.0257218 6.89716 0.167888C6.71616 0.111472 6.54966 -0.0057782 6.35366 0.000221797L6.354 0.000388463C6.25141 0.00338846 6.14083 0.0408051 6.01541 0.138305C5.70808 0.0215551 5.41025 -0.0189449 5.14383 0.218638C4.7325 0.166055 4.59883 0.274555 4.4975 0.401138C4.40725 0.399222 3.82183 0.309722 3.55333 0.704139C2.87866 0.625555 2.66541 1.09506 2.907 1.53281C2.76925 1.74289 2.6265 1.95056 2.94866 2.35106C2.83475 2.57414 2.90541 2.81614 3.17391 3.10906C3.10308 3.42264 3.24241 3.64389 3.49216 3.81631C3.44541 4.24547 3.89175 4.49497 4.025 4.58389C4.07616 4.83397 4.18283 5.06989 4.69258 5.20039C4.77658 5.57306 5.083 5.63739 5.37966 5.71564C4.39916 6.27706 3.55833 7.01564 3.564 8.82797L3.42033 9.08031C2.29608 9.75381 1.28458 11.9183 2.86633 13.6776C2.96966 14.2283 3.14291 14.6238 3.29725 15.0616C3.528 16.8258 5.034 17.6518 5.43125 17.7496C6.01325 18.1862 6.63316 18.6006 7.47208 18.8909C8.26291 19.6942 9.11958 20.0004 9.981 19.9999C9.99366 19.9999 10.0065 20.0001 10.0191 19.9999C10.8805 20.0004 11.7372 19.6942 12.528 18.8909C13.3669 18.6006 13.9868 18.1862 14.5689 17.7496C14.9661 17.6518 16.4721 16.8258 16.7028 15.0616C16.8571 14.6239 17.0304 14.2283 17.1337 13.6776C18.7154 11.9181 17.7039 9.75347 16.5796 9.08006ZM15.7141 8.77047C15.6554 9.50039 11.8512 6.22847 12.5081 6.11981C14.2907 5.82331 15.774 6.86647 15.7141 8.77047ZM14.0345 12.4079C13.0777 13.0253 11.6991 12.6267 10.9551 11.5178C10.2111 10.409 10.3836 9.00939 11.3403 8.39206C12.2971 7.77464 13.6757 8.17314 14.4197 9.28206C15.1637 10.391 14.9912 11.7905 14.0345 12.4079ZM11.3826 1.14339C11.4156 1.30731 11.4528 1.41089 11.4954 1.44147C11.7068 1.21481 11.8797 0.982639 12.1519 0.764555C12.1528 0.892639 12.0872 1.03164 12.2493 1.13331C12.3953 0.936972 12.5926 0.761722 12.8546 0.612972C12.7284 0.830555 12.8329 0.896639 12.9007 0.986805C13.1007 0.815222 13.2908 0.641472 13.6598 0.506888C13.559 0.629722 13.418 0.749722 13.5675 0.890805C13.7736 0.762138 13.9808 0.633638 14.4702 0.542222C14.36 0.665138 14.132 0.788055 14.2702 0.911055C14.5288 0.812222 14.8151 0.740472 15.1318 0.698888C14.9802 0.823555 14.8537 0.945805 14.978 1.04239C15.2549 0.957222 15.6362 0.842555 16.009 0.941388L15.773 1.17881C15.7468 1.21064 16.3249 1.20356 16.7065 1.20914C16.5673 1.40256 16.4252 1.58931 16.3423 1.92147C16.3802 1.95972 16.5692 1.93847 16.7475 1.92147C16.5647 2.30631 16.2472 2.40339 16.1731 2.56814C16.2847 2.65272 16.4397 2.63064 16.6091 2.57314C16.4774 2.84431 16.2014 3.03014 15.9833 3.25006C16.0385 3.28922 16.1348 3.31256 16.3629 3.28547C16.1614 3.49964 15.918 3.69547 15.6294 3.87147C15.6806 3.93047 15.8562 3.92822 16.0192 3.93206C15.7579 4.18781 15.4215 4.32039 15.1063 4.48772C15.2634 4.59506 15.3758 4.57006 15.4962 4.56856C15.2732 4.75172 14.8941 4.84706 14.5422 4.95756C14.6091 5.06164 14.6761 5.08997 14.8192 5.11922C14.4467 5.3253 13.9131 5.23114 13.7626 5.33647C13.7988 5.44006 13.9013 5.50756 14.0242 5.56381C13.4244 5.59864 11.7842 5.54197 11.4698 4.30081C12.0837 3.62631 13.2042 2.83472 15.1315 1.85581C13.632 2.35764 12.2791 3.02664 11.1467 3.94714C9.81525 3.32747 10.733 1.76406 11.3826 1.14339ZM10.0387 5.61989C10.9828 5.60964 12.1517 6.31364 12.1471 6.97706C12.1429 7.56264 11.3262 8.03664 10.046 8.02764C8.79241 8.01289 7.94833 7.43197 7.95125 6.86456C7.95375 6.39764 8.97475 5.59264 10.0387 5.61989ZM5.23491 5.11939C5.378 5.09014 5.44491 5.06172 5.51183 4.95772C5.15991 4.84714 4.78083 4.75189 4.55783 4.56872C4.67816 4.57022 4.7905 4.59522 4.94766 4.48789C4.63241 4.32056 4.296 4.18797 4.03466 3.93222C4.19758 3.92822 4.37333 3.93056 4.42441 3.87156C4.13591 3.69547 3.8925 3.49964 3.691 3.28547C3.91916 3.31256 4.01541 3.28922 4.07058 3.25006C3.8525 3.03006 3.57641 2.84422 3.44483 2.57314C3.61416 2.63064 3.76916 2.65264 3.88083 2.56814C3.80666 2.40339 3.48916 2.30631 3.30633 1.92147C3.48466 1.93847 3.67375 1.95972 3.71158 1.92147C3.62875 1.58939 3.48675 1.40264 3.3475 1.20922C3.72908 1.20364 4.30716 1.21072 4.281 1.17889L4.04508 0.941472C4.41775 0.842638 4.79916 0.957305 5.076 1.04256C5.20033 0.945972 5.07383 0.823722 4.92208 0.698972C5.23883 0.740638 5.52508 0.812388 5.78375 0.911222C5.922 0.788222 5.69408 0.665305 5.58375 0.542388C6.07308 0.633805 6.2805 0.762305 6.4865 0.890972C6.636 0.749805 6.49508 0.629888 6.39416 0.507055C6.76316 0.641639 6.95325 0.815388 7.15333 0.986972C7.22116 0.896805 7.32566 0.830722 7.1995 0.613138C7.46141 0.761889 7.65875 0.937139 7.80475 1.13347C7.96683 1.03181 7.90133 0.892805 7.90216 0.764638C8.17441 0.982805 8.34716 1.21497 8.55875 1.44164C8.60133 1.41114 8.63866 1.30747 8.67158 1.14356C9.32108 1.76422 10.2388 3.32756 8.9075 3.94739C7.77508 3.02747 6.42275 2.35872 4.92416 1.85689C6.85041 2.83522 7.9705 3.62681 8.58416 4.30089C8.26975 5.54214 6.62958 5.59881 6.02991 5.56397C6.15266 5.50764 6.25516 5.44022 6.2915 5.33664C6.141 5.23131 5.60741 5.32547 5.23491 5.11939ZM7.58283 6.06389C8.23958 6.17256 4.43541 9.44447 4.37683 8.71464C4.31691 6.81081 5.80008 5.76739 7.58283 6.06389ZM3.54366 13.3611C2.61916 12.6287 2.32133 10.4837 4.03541 9.51972C5.06825 9.24697 4.38408 13.7289 3.54366 13.3611ZM7.09833 17.1936C6.57691 17.5035 5.31066 17.3758 4.41066 16.1023C3.80375 15.0337 3.88191 13.9463 4.30816 13.6269C4.9455 13.2445 5.93016 13.761 6.68808 14.6271C7.34833 15.4109 7.64941 16.7877 7.09833 17.1936ZM6.06375 12.5197C5.107 11.9023 4.9345 10.5028 5.6785 9.39381C6.4225 8.28489 7.80116 7.88639 8.75783 8.50381C9.71458 9.12122 9.88708 10.5207 9.14308 11.6296C8.39925 12.7386 7.0205 13.1371 6.06375 12.5197ZM10.0594 19.3763C8.9125 19.425 7.78791 18.4509 7.80266 18.1132C7.7855 17.6182 9.19916 17.2317 10.121 17.2544C11.0486 17.2145 12.2933 17.5486 12.2957 17.992C12.3111 18.4225 11.1668 19.3951 10.0594 19.3763ZM12.3581 14.4948C12.3648 15.6531 11.3364 16.5969 10.0612 16.6031C8.78608 16.6091 7.74683 15.6751 7.74008 14.517V14.4949C7.73341 13.3366 8.76166 12.3927 10.0369 12.3866C11.3121 12.3806 12.3513 13.3145 12.358 14.4727C12.3581 14.4801 12.3582 14.4874 12.3581 14.4948ZM15.5706 16.1639C14.5822 17.5146 13.2442 17.5672 12.7459 17.191C12.2247 16.7067 12.6226 15.2031 13.3371 14.3787V14.3785C14.1547 13.4691 15.0289 12.8754 15.6378 13.3394C16.0477 13.7417 16.2882 15.2567 15.5706 16.1639ZM16.4642 13.3055C15.6237 13.6732 14.9394 9.19114 15.9725 9.46381C17.6865 10.4279 17.3887 12.573 16.4642 13.3055ZM16.4429 6.36556H16.6917V5.92356H16.9405C17.0657 5.92356 17.1116 5.97556 17.129 6.09456C17.1417 6.18522 17.1384 6.29414 17.1687 6.36564H17.4174C17.373 6.30206 17.3745 6.16914 17.3698 6.09789C17.3617 5.98347 17.3271 5.86489 17.2051 5.83322V5.83014C17.3302 5.77931 17.3842 5.67956 17.3842 5.54597C17.3842 5.37531 17.2559 5.23447 17.053 5.23447H16.443V6.36556H16.4429ZM16.6917 5.42764H16.9641C17.0752 5.42764 17.1352 5.47539 17.1352 5.58431C17.1352 5.69839 17.0752 5.74614 16.9641 5.74614H16.6917V5.42764ZM15.8302 5.81372C15.8302 6.39781 16.3037 6.87156 16.8882 6.87156C17.4726 6.87156 17.9461 6.39789 17.9461 5.81372C17.9461 5.22931 17.4725 4.75564 16.8882 4.75564C16.3037 4.75564 15.8302 5.22931 15.8302 5.81372ZM17.7698 5.81372C17.7698 6.30081 17.3751 6.69539 16.8882 6.69539C16.4012 6.69539 16.0065 6.30081 16.0065 5.81372C16.0065 5.32631 16.4012 4.93206 16.8882 4.93206C17.3751 4.93206 17.7698 5.32631 17.7698 5.81372Z" fill="#AAAAAA"/>
</g>
<defs>
<clipPath id="clip0_28_1633">
<rect width="20" height="20" fill="white"/>
</clipPath>
</defs>
</svg>
