<svg width="20" height="20" viewBox="0 0 20 20" fill="none" xmlns="http://www.w3.org/2000/svg">
<path d="M11.8583 10.0033C11.8583 10.4973 11.6621 10.9712 11.3129 11.3206C10.9636 11.67 10.4899 11.8664 9.99583 11.8666C9.50165 11.8666 9.0277 11.6703 8.67826 11.3209C8.32881 10.9714 8.1325 10.4975 8.1325 10.0033C8.1325 9.50926 8.3287 9.03544 8.67796 8.68602C9.02723 8.3366 9.50096 8.14019 9.995 8.13997C10.4892 8.13997 10.9631 8.33628 11.3126 8.68573C11.662 9.03517 11.8583 9.50912 11.8583 10.0033ZM14.065 1.09497C12.9433 1.09497 11.4758 1.89497 9.99167 3.27997C8.50833 1.90247 7.04 1.11164 5.91917 1.11164C5.5775 1.11164 5.26667 1.18914 4.9975 1.3433C3.85167 2.00414 3.595 4.0633 4.18667 6.64747C1.65 7.4308 0 8.6833 0 10.0033C0 11.3283 1.65833 12.5841 4.2025 13.3616C3.61583 15.9558 3.8775 18.0183 5.02583 18.6783C5.2925 18.8341 5.60083 18.9075 5.94417 18.9075C7.065 18.9075 8.53333 18.1075 10.0175 16.7208C11.5008 18.0991 12.9692 18.89 14.09 18.89C14.4317 18.89 14.7425 18.815 15.0117 18.6608C16.1567 18.0008 16.4142 15.9416 15.8225 13.3566C18.35 12.58 20 11.325 20 10.0033C20 8.6783 18.3417 7.42247 15.7975 6.6433C16.3842 4.05164 16.1225 1.98747 14.9742 1.32664C14.7092 1.1733 14.4008 1.0958 14.0642 1.09497H14.065ZM14.0608 2.0033V2.0083C14.2483 2.0083 14.3992 2.04497 14.5258 2.11414C15.0808 2.43247 15.3217 3.6433 15.1342 5.2008C15.0892 5.58414 15.0158 5.9883 14.9258 6.4008C14.1258 6.20414 13.2542 6.0533 12.3367 5.9558C11.7867 5.20164 11.2158 4.51664 10.6408 3.91664C11.9675 2.6833 13.2133 2.00664 14.0617 2.00414L14.0608 2.0033ZM5.91917 2.01997C6.7625 2.01997 8.01417 2.6933 9.34417 3.91997C8.7725 4.51997 8.2025 5.2008 7.66083 5.95497C6.73833 6.05247 5.86583 6.2033 5.06667 6.4033C4.97333 5.99497 4.90417 5.59997 4.855 5.21997C4.66333 3.6633 4.9 2.4533 5.45 2.1308C5.60833 2.0558 5.78333 2.02497 5.91917 2.0208V2.01997ZM9.9875 4.56164C10.3667 4.95164 10.7458 5.3883 11.1208 5.86497C10.7542 5.8483 10.3792 5.83664 10 5.83664C9.61667 5.83664 9.2375 5.84497 8.86667 5.86497C9.23333 5.3883 9.6125 4.95164 9.9875 4.5608V4.56164ZM10 6.74997C10.6167 6.74997 11.2308 6.7783 11.835 6.82747C12.1733 7.31247 12.5033 7.82997 12.8208 8.37747C13.1308 8.9108 13.4125 9.45247 13.6692 9.99914C13.4125 10.545 13.1308 11.0908 12.825 11.6241C12.5083 12.1741 12.1808 12.6975 11.8417 13.1825C11.235 13.235 10.62 13.2641 10 13.2641C9.38333 13.2641 8.76917 13.235 8.165 13.1866C7.82667 12.7016 7.49667 12.1833 7.17917 11.6366C6.86917 11.1033 6.5875 10.5616 6.33083 10.015C6.58333 9.46747 6.86917 8.9208 7.175 8.38664C7.49167 7.83664 7.81917 7.31497 8.15833 6.82997C8.765 6.77664 9.38 6.7483 10 6.7483V6.74997ZM6.97083 6.96164C6.77083 7.2758 6.57083 7.59747 6.38417 7.9283C6.19667 8.2533 6.02167 8.57997 5.855 8.90664C5.63417 8.35997 5.44667 7.81497 5.29167 7.28414C5.825 7.15914 6.3875 7.0483 6.97083 6.96247V6.96164ZM13.0208 6.96164C13.6 7.04747 14.1583 7.1533 14.6925 7.28414C14.5425 7.8108 14.355 8.35247 14.1425 8.89497C13.9758 8.56997 13.8008 8.24247 13.6092 7.91664C13.4217 7.58997 13.2217 7.27164 13.0217 6.96164H13.0208ZM15.5733 7.52414C15.9767 7.64914 16.36 7.7883 16.7192 7.93914C18.1625 8.5558 19.0958 9.36247 19.0958 10.0025C19.0917 10.6425 18.1583 11.4525 16.715 12.065C16.365 12.215 15.9817 12.35 15.5858 12.4758C15.3525 11.6775 15.0475 10.8458 14.6692 9.99247C15.0442 9.14497 15.3442 8.31747 15.5733 7.52247V7.52414ZM4.41083 7.52747C4.6425 8.32747 4.94833 9.1583 5.3275 10.0108C4.9525 10.8583 4.65083 11.6858 4.4225 12.4808C4.01917 12.3558 3.63583 12.2158 3.28083 12.0641C1.8375 11.45 0.904167 10.6425 0.904167 10.0025C0.904167 9.36247 1.8375 8.5508 3.28083 7.93914C3.63083 7.78914 4.01417 7.65414 4.41083 7.52747ZM14.1425 11.0941C14.3633 11.6416 14.5508 12.1875 14.7058 12.7175C14.1725 12.8483 13.6092 12.9591 13.0258 13.0425C13.2258 12.73 13.4258 12.4075 13.6133 12.0775C13.8008 11.7525 13.9758 11.4208 14.1433 11.0941H14.1425ZM5.855 11.1108C6.02167 11.4375 6.19667 11.7633 6.38833 12.09C6.58 12.415 6.77583 12.7333 6.97583 13.0425C6.39667 12.9575 5.83833 12.8508 5.30417 12.7208C5.45417 12.1958 5.6425 11.6525 5.85417 11.11L5.855 11.1108ZM14.9333 13.6C15.0267 14.0108 15.1 14.4066 15.145 14.7858C15.3367 16.3425 15.1 17.5525 14.55 17.8758C14.4275 17.9508 14.2683 17.9825 14.0808 17.9825C13.2375 17.9825 11.9858 17.31 10.6558 16.0825C11.2275 15.4825 11.7975 14.8025 12.3392 14.0491C13.2617 13.9508 14.1342 13.7991 14.9333 13.5991V13.6ZM5.075 13.6083C5.875 13.8033 6.74667 13.9541 7.66417 14.0516C8.21417 14.8058 8.785 15.4908 9.36 16.09C8.03083 17.3258 6.78333 18.0025 5.935 18.0025C5.75167 17.9983 5.59667 17.9608 5.47417 17.8925C4.91917 17.5758 4.67833 16.3641 4.86583 14.8066C4.91083 14.4233 4.98417 14.02 5.07417 13.6083H5.075ZM8.875 14.1416C9.24167 14.1583 9.61667 14.17 9.99583 14.17C10.3792 14.17 10.7583 14.1616 11.1292 14.1416C10.7625 14.6183 10.3833 15.0541 10.0083 15.4458C9.62917 15.0541 9.25 14.6183 8.875 14.1416Z" fill="#AAAAAA"/>
</svg>
