<svg width="20" height="20" viewBox="0 0 20 20" fill="none" xmlns="http://www.w3.org/2000/svg">
<g clip-path="url(#clip0_28_1650)">
<path d="M11.6467 7.625C9.83669 6.95333 8.85003 6.43667 8.85003 5.6175C8.85003 4.925 9.41919 4.53 10.4342 4.53C12.29 4.53 14.1967 5.245 15.5092 5.88917L16.2509 1.31083C15.21 0.8125 13.0809 0 10.1375 0C8.05586 0 6.32419 0.545 5.08669 1.56C3.80003 2.6225 3.13086 4.16 3.13086 6.015C3.13086 9.38083 5.18669 10.815 8.52753 12.0308C10.6817 12.7975 11.3984 13.3425 11.3984 14.1833C11.3984 15 10.6984 15.4708 9.4367 15.4708C7.8742 15.4708 5.29919 14.7033 3.61169 13.7133L2.86169 18.3425C4.31253 19.1583 6.98753 20 9.76169 20C11.9625 20 13.7975 19.48 15.035 18.4892C16.4217 17.4017 17.1392 15.7925 17.1392 13.7125C17.1392 10.2725 15.0359 8.83667 11.6442 7.625H11.6467Z" fill="#AAAAAA"/>
</g>
<defs>
<clipPath id="clip0_28_1650">
<rect width="20" height="20" fill="white"/>
</clipPath>
</defs>
</svg>
