<svg width="20" height="20" viewBox="0 0 20 20" fill="none" xmlns="http://www.w3.org/2000/svg">
<g clip-path="url(#clip0_28_1617)">
<path d="M10.0009 4C7.33419 4 5.66752 5.33333 5.00085 8C6.00085 6.66667 7.16752 6.16667 8.50085 6.5C9.26169 6.69 9.80502 7.24167 10.4075 7.85333C11.3884 8.84833 12.5225 10 15.0009 10C17.6675 10 19.3342 8.66667 20.0009 6C19.0009 7.33333 17.8342 7.83333 16.5009 7.5C15.74 7.31 15.1967 6.75833 14.5942 6.14667C13.6142 5.15167 12.48 4 10.0009 4ZM5.00085 10C2.33419 10 0.667521 11.3333 0.000854492 14C1.00085 12.6667 2.16752 12.1667 3.50085 12.5C4.26169 12.69 4.80502 13.2417 5.40752 13.8533C6.38835 14.8483 7.52252 16 10.0009 16C12.6675 16 14.3342 14.6667 15.0009 12C14.0009 13.3333 12.8342 13.8333 11.5009 13.5C10.74 13.31 10.1967 12.7583 9.59419 12.1467C8.61419 11.1517 7.48002 10 5.00085 10Z" fill="#AAAAAA"/>
</g>
<defs>
<clipPath id="clip0_28_1617">
<rect width="20" height="20" fill="white"/>
</clipPath>
</defs>
</svg>
