<svg width="20" height="20" viewBox="0 0 20 20" fill="none" xmlns="http://www.w3.org/2000/svg">
<g clip-path="url(#clip0_28_1642)">
<path d="M10 0C15.5192 0 20 4.48083 20 10C20 15.5192 15.5192 20 10 20C4.48083 20 0 15.5192 0 10C0 4.48083 4.48083 0 10 0ZM12.7325 14.7333C12.0942 15.1008 11.875 15.9183 12.2442 16.5575C12.6117 17.195 13.4292 17.4142 14.0675 17.0442C14.7058 16.6767 14.925 15.8592 14.555 15.22C14.1875 14.5825 13.3708 14.3633 12.7325 14.7333ZM10 13.9C9.4125 13.9 8.85583 13.7692 8.3575 13.5375L7.43 15.2C8.205 15.5825 9.07833 15.8008 10 15.8008C10.5383 15.8008 11.0567 15.725 11.55 15.5875C11.6367 15.0517 11.9542 14.5592 12.4625 14.265C12.97 13.9725 13.5567 13.9433 14.0625 14.135C15.0508 13.1658 15.6933 11.8442 15.7875 10.3725L13.8833 10.345C13.7083 12.3375 12.0375 13.9 10 13.9ZM6.1 10C6.1 8.68083 6.75583 7.51583 7.75833 6.80833L6.78333 5.17417C5.61333 5.94917 4.74583 7.14833 4.3825 8.53667C4.80417 8.87333 5.07417 9.39833 5.07417 9.98667C5.07417 10.5733 4.80417 11.0858 4.3825 11.4358C4.74583 12.8233 5.61333 14.0225 6.78333 14.7975L7.75833 13.16C6.75583 12.475 6.1 11.3117 6.1 10ZM3.2 8.665C2.4625 8.665 1.865 9.2625 1.865 10C1.865 10.7375 2.4625 11.335 3.2 11.335C3.9375 11.335 4.53417 10.7375 4.53417 10C4.53417 9.2625 3.9375 8.665 3.2 8.665ZM10 6.1C12.0375 6.1 13.7083 7.6625 13.8833 9.65417L15.7875 9.62583C15.6933 8.155 15.05 6.83417 14.0625 5.8625C13.555 6.05583 12.9683 6.02417 12.4625 5.73417C11.955 5.44083 11.6375 4.94667 11.55 4.40833C11.055 4.275 10.5383 4.2 10 4.2C9.075 4.2 8.20417 4.41667 7.43 4.8L8.3575 6.4625C8.8575 6.23 9.41417 6.1 10 6.1ZM12.7325 5.26583C13.37 5.63417 14.1875 5.41667 14.5567 4.77833C14.9242 4.14083 14.7075 3.32333 14.0667 2.95333C13.4292 2.58667 12.6117 2.80417 12.2425 3.44417C11.875 4.08083 12.0925 4.8975 12.7325 5.26583Z" fill="#AAAAAA"/>
</g>
<defs>
<clipPath id="clip0_28_1642">
<rect width="20" height="20" fill="white"/>
</clipPath>
</defs>
</svg>
