<?xml version="1.0" encoding="UTF-8" standalone="no"?>
<!DOCTYPE svg PUBLIC "-//W3C//DTD SVG 1.1//EN" "http://www.w3.org/Graphics/SVG/1.1/DTD/svg11.dtd">
<!-- Created with Vectornator (http://vectornator.io/) -->
<svg height="100%" stroke-miterlimit="10" style="fill-rule:nonzero;clip-rule:evenodd;stroke-linecap:round;stroke-linejoin:round;" version="1.1" viewBox="946.032 1501.62 166.4 164.8" width="100%" xml:space="preserve" xmlns="http://www.w3.org/2000/svg" xmlns:vectornator="http://vectornator.io" xmlns:xlink="http://www.w3.org/1999/xlink">
<defs/>
<g id="Layer">
<path d="M1010.83 1516.02C1016.12 1514.62 1027.39 1516.07 1020.53 1525.22C1017.86 1528.77 1015.79 1528.24 1014.03 1532.82C1030.92 1529.65 1040.1 1525.2 1048.53 1511.32C1050.34 1508.34 1052.51 1505.1 1052.43 1501.62C1047.52 1506.53 1040.68 1503.4 1034.08 1503.27C1026.96 1503.12 1021.07 1507.28 1014.63 1509.82C1011.67 1510.98 1010.95 1513.14 1010.83 1516.02ZM1007.63 1559.22C1014.98 1555 1011.4 1555.99 1018.03 1555.22C1017.23 1558.42 1017.23 1558.42 1016.43 1561.62C1021.95 1561.62 1027.62 1558.56 1032.43 1556.82C1033.65 1562.89 1036.93 1572.75 1044.53 1573.59C1048.15 1573.99 1047.75 1567.97 1051.83 1570.02C1053.44 1570.82 1054.9 1571.88 1056.43 1572.82C1051.88 1557.43 1054.53 1548.29 1056.73 1531.92C1057.54 1525.91 1058.81 1517.61 1052.43 1514.42C1046.32 1530.71 1030.62 1530.76 1017.88 1540.14C1012.02 1544.46 1009.85 1552.87 1007.63 1559.22ZM997.232 1519.22C998.656 1529.79 1014.52 1523.99 1019.63 1522.42C1014.28 1515.28 1004.8 1519.85 997.232 1519.22ZM990.832 1536.82C986.153 1535.3 984.865 1529.85 980.432 1528.42C972.652 1525.89 971.039 1536.88 982.832 1540.02C981.066 1542.76 977.349 1539.56 975.632 1542.02C966.558 1555 983.464 1550.51 988.332 1547.92C988.956 1547.58 989.745 1547.45 990.432 1547.62C993.34 1548.32 993.028 1553.7 993.232 1555.22C1002.67 1552.27 1006.22 1550.77 1010.03 1541.62C998.259 1538.56 1000.32 1529.16 990.032 1524.02C988.291 1529.82 987.744 1531.68 990.832 1536.82ZM1075.63 1573.62C1079.19 1569.5 1080.94 1564.12 1083.83 1559.52C1085.91 1556.19 1091.42 1555.71 1087.23 1549.92C1084.66 1546.35 1080.47 1543.46 1079.63 1539.14C1091.54 1540.43 1097.35 1551.79 1095.23 1563.62C1094.68 1566.68 1094.03 1572.98 1089.38 1573.62C1086.68 1573.98 1083.95 1573.08 1081.23 1572.82C1084.03 1575.22 1084.03 1575.22 1086.83 1577.62C1074.8 1582.26 1074.78 1582.54 1073.23 1595.22C1096.49 1575.13 1090.91 1618.06 1065.53 1612.12C1063.02 1611.53 1059.23 1608.91 1057.73 1606.82C1056.32 1604.84 1054.88 1602.73 1054.33 1600.37C1052.37 1591.82 1052.25 1582.9 1050.03 1574.42C1048.04 1575.68 1046.72 1577.77 1045.03 1579.42C1044.69 1579.74 1043.98 1579.94 1043.63 1579.62C1039.53 1575.74 1036.17 1571.13 1032.11 1567.22C1027.58 1562.86 1019.55 1563.29 1013.43 1564.72C1009.54 1565.62 1011.24 1573.56 1011.53 1574.52C1013.25 1580.15 1017.04 1582.72 1021.88 1585.42C1027.01 1588.27 1032.54 1590.36 1037.61 1593.32C1039.56 1594.45 1041.09 1596.18 1042.83 1597.62C1029.86 1597.32 1020.69 1600.45 1026.53 1615.52C1027.08 1616.94 1028.16 1618.13 1029.23 1619.22C1034.95 1625.01 1043.46 1627.21 1050.03 1632.02C1055.17 1635.77 1053.44 1639.6 1050.83 1644.42C1048.53 1648.67 1043.33 1646.49 1041.16 1643.52C1039.15 1640.77 1038.93 1636.98 1036.96 1634.22C1033.28 1629.07 1023.99 1633.31 1031.63 1644.02C1024.24 1639.01 1020.12 1643.18 1014.83 1648.82C1021.19 1651.6 1023 1649.56 1029.23 1650.42C1025.71 1654.96 1022.98 1660.67 1022.83 1666.42C1025.01 1664.43 1028.69 1664.9 1031.03 1663.12C1036.54 1658.91 1033.98 1654.47 1041.91 1653.52C1042.37 1655.77 1042.37 1655.77 1042.83 1658.02C1054.92 1658.86 1066.42 1639.78 1072.43 1632.82C1064.45 1627.41 1056.74 1623.92 1056.43 1613.62C1081.15 1623.52 1084.4 1612.86 1096.51 1592.99C1098.24 1590.15 1103.15 1590.35 1104.82 1587.47C1106.46 1584.63 1105.03 1580.78 1106.23 1577.72C1107.63 1574.14 1110.37 1571.25 1112.43 1568.02C1107.95 1566.98 1102.87 1568.2 1098.83 1570.42C1099.21 1559.85 1100.12 1548.5 1092.73 1539.77C1086.09 1531.92 1071.67 1524.89 1065.81 1537.77C1062.41 1545.22 1071.04 1553.97 1073.03 1559.82C1074.54 1564.25 1074.77 1569.02 1075.63 1573.62ZM953.232 1552.82C956.032 1556.02 956.032 1556.02 958.832 1559.22C949.005 1559.39 946.032 1560.12 946.032 1570.42C950.432 1570.42 950.432 1570.42 954.832 1570.42C954.547 1573.73 953.92 1582.56 960.832 1578.82C962.248 1578.05 968.117 1563.76 970.432 1573.02C970.806 1574.51 970.699 1576.08 970.832 1577.62C988.458 1573.31 994.697 1578.74 1012.43 1584.02C1008.55 1577.54 1007.37 1572.33 1006.83 1564.82C996.015 1565.68 985.616 1566.81 975.132 1563.32C964.497 1559.77 970.064 1540.19 953.232 1552.82ZM967.632 1606.42C970.032 1606.42 970.032 1606.42 972.432 1606.42C972.432 1608.02 972.432 1608.02 972.432 1609.62C965.555 1608.93 960.781 1611.01 962.832 1619.22C972.595 1614.68 968.893 1624.99 973.232 1630.42C977.635 1624.34 991.687 1616.21 994.832 1627.22C1005.25 1621.73 1011.96 1619.36 1023.63 1618.42C1018.96 1607.4 1019.2 1602.69 1028.43 1595.22C1023.4 1593.51 1018.39 1591.73 1013.33 1590.09C1005.77 1587.64 1000.33 1589.51 998.407 1597.94C997.618 1601.4 1007.76 1609.59 1003.23 1610.02C996.455 1610.66 991.197 1610.93 984.957 1609.29C980.399 1608.09 970.97 1584.91 967.632 1606.42Z" fill="#ffffff" fill-rule="nonzero" opacity="1" stroke="none"/>
</g>
</svg>
