<svg width="192" height="40" viewBox="0 0 192 40" fill="none" xmlns="http://www.w3.org/2000/svg">
<g clip-path="url(#clip0_6_1641)">
<mask id="mask0_6_1641" style="mask-type:luminance" maskUnits="userSpaceOnUse" x="0" y="0" width="192" height="40">
<path d="M0 0H192V40H0V0Z" fill="white"/>
</mask>
<g mask="url(#mask0_6_1641)">
<path d="M10.4244 23.3537C2.61437 31.3037 -1.38763 37.3257 0.436366 39.3497C2.28037 41.3977 8.78237 37.9997 17.5544 31.0157C16.7191 30.6962 15.9221 30.2843 15.1784 29.7877C9.73437 34.3017 7.15437 35.6397 6.02237 34.3837C4.89437 33.1297 6.46237 30.6997 11.4644 25.7877C11.029 25.0172 10.6802 24.2009 10.4244 23.3537ZM26.2804 9.04974C27.1084 9.3964 27.883 9.82707 28.6044 10.3417C34.1804 5.71973 36.8684 4.31373 38.0084 5.58173C39.1544 6.85373 37.4424 9.37573 32.2084 14.4657C32.6257 15.2564 32.9504 16.0924 33.1824 16.9737C41.2504 8.82774 45.4184 2.63973 43.5744 0.591735C41.7184 -1.47027 35.1384 1.97774 26.2804 9.04974ZM27.9824 39.4597H23.2824V16.9357H27.9824V28.4237H29.0124L33.8384 22.8877H39.3104L35.6404 27.2637C34.2564 29.0337 33.3884 29.7437 32.3604 30.1617V31.2557C33.5504 31.7377 34.5144 32.6057 35.8004 34.3757L39.6004 39.4617H34.0964L29.0124 32.9277H27.9824V39.4597Z" fill="white"/>
<path d="M48.716 32.252H39.318V28.36H48.716V32.252ZM58.184 39.912C53.936 39.912 50.396 37.98 50.46 34.248H54.966C55.094 35.954 55.674 36.726 58.376 36.726C60.886 36.726 61.37 36.05 61.37 34.826C61.37 33.958 60.918 33.506 59.31 33.218L55.61 32.542C52.65 31.996 50.782 30.482 50.782 27.972C50.782 24.754 53.678 22.438 58.248 22.438C62.174 22.438 65.682 24.368 65.616 27.94H61.112C60.982 26.332 60.404 25.592 58.054 25.592C55.704 25.592 55.288 26.268 55.254 27.33C55.254 28.198 55.61 28.714 57.186 29.002L60.854 29.646C63.912 30.194 65.874 31.706 65.874 34.28C65.874 37.498 62.946 39.912 58.184 39.912ZM75.468 39.912C70.35 39.912 66.972 37.048 66.972 31.158C66.972 25.464 70.416 22.438 75.5 22.438C79.78 22.438 83.19 24.434 83.384 28.842H78.75C78.59 26.622 77.85 26.042 75.436 26.042C72.604 26.042 71.862 26.59 71.862 31.158C71.862 35.728 72.602 36.308 75.436 36.308C77.848 36.308 78.588 35.728 78.75 33.476H83.384C83.19 37.884 79.78 39.912 75.468 39.912ZM89.958 39.816C86.676 39.816 84.358 37.884 84.358 34.536C84.358 31.802 86.032 29.904 89.958 29.614L95.398 29.228V27.94C95.398 26.14 94.592 25.752 92.5 25.752C90.12 25.752 89.444 26.364 89.38 28.102H84.778C84.744 24.658 87.898 22.438 92.694 22.438C96.168 22.438 99.934 23.598 99.934 28.424V39.46H95.558L95.492 38.012H94.464C93.724 39.172 91.856 39.814 89.958 39.814M92.082 36.53C94.786 36.53 95.396 35.726 95.396 33.506V32.09L91.212 32.444C89.444 32.604 89.056 33.024 89.056 34.504C89.056 36.144 89.83 36.53 92.082 36.53ZM107.344 39.46H102.644V16.936H107.344V39.46ZM125.772 32.606H113.93C113.834 35.438 114.862 36.436 117.694 36.436C119.818 36.436 120.914 35.922 121.106 34.12H125.644C125.288 37.852 121.974 39.912 117.726 39.912C112.706 39.912 109.328 36.952 109.328 31.256C109.328 25.624 112.964 22.438 117.824 22.438C123.004 22.438 125.9 25.914 125.9 30.676C125.9 31.32 125.868 31.932 125.772 32.606ZM117.694 25.914C114.862 25.914 113.93 26.846 113.962 29.518H121.266C121.426 26.878 120.43 25.914 117.694 25.914ZM138.356 39.46H133.656V16.936H138.356V39.46ZM145.94 39.816C142.656 39.816 140.34 37.884 140.34 34.536C140.34 31.802 142.014 29.904 145.94 29.614L151.378 29.228V27.94C151.378 26.14 150.572 25.752 148.482 25.752C146.1 25.752 145.424 26.364 145.36 28.102H140.758C140.726 24.658 143.878 22.438 148.674 22.438C152.15 22.438 155.914 23.598 155.914 28.424V39.46H151.54L151.476 38.012H150.446C149.706 39.172 147.84 39.814 145.942 39.814M148.064 36.53C150.768 36.53 151.38 35.726 151.38 33.506V32.09L147.196 32.444C145.426 32.604 145.04 33.024 145.04 34.504C145.04 36.144 145.812 36.53 148.064 36.53ZM168.7 39.912C166.446 39.912 164.87 38.914 164.096 37.82H163.068L162.97 39.46H158.626V16.936H163.26V24.4H164.29C165.126 23.336 166.864 22.436 168.956 22.436C172.816 22.436 175.616 25.526 175.616 31.092C175.616 36.982 172.496 39.91 168.698 39.91M166.99 36.21C170.37 36.21 170.724 35.47 170.724 31.156C170.724 26.842 170.37 26.104 166.99 26.104C163.58 26.104 163.226 26.844 163.226 31.156C163.226 35.468 163.58 36.21 166.99 36.21ZM184.31 39.912C180.062 39.912 176.522 37.98 176.586 34.248H181.092C181.22 35.954 181.8 36.726 184.502 36.726C187.012 36.726 187.494 36.05 187.494 34.826C187.494 33.958 187.044 33.506 185.434 33.218L181.734 32.542C178.774 31.996 176.908 30.482 176.908 27.972C176.908 24.754 179.804 22.438 184.374 22.438C188.3 22.438 191.806 24.368 191.742 27.94H187.24C187.11 26.332 186.532 25.592 184.182 25.592C181.832 25.592 181.416 26.268 181.382 27.33C181.382 28.198 181.736 28.714 183.314 29.002L186.982 29.646C190.04 30.194 192.002 31.706 192.002 34.28C192.002 37.498 189.072 39.912 184.31 39.912Z" fill="white"/>
</g>
</g>
<defs>
<clipPath id="clip0_6_1641">
<rect width="192" height="40" fill="white"/>
</clipPath>
</defs>
</svg>
